<svg xmlns="http://www.w3.org/2000/svg" width="594.183" height="427.988" viewBox="0 0 594.183 427.988">
  <g id="Group_18" data-name="Group 18" transform="translate(-2506 -5507.93)">
    <circle id="Ellipse_96" data-name="Ellipse 96" cx="7.472" cy="7.472" r="7.472" transform="translate(2554.39 5920.314)" fill="#3f3d56"/>
    <path id="Path_301" data-name="Path 301" d="M36.572,193.291a12.62,12.62,0,0,1,2.921-5.194l4.689-20.539,9.708,2.517-5.8,20.564a12.62,12.62,0,0,1-.374,5.948c-1.43,4.835-5.083,8.017-8.16,7.107s-4.412-5.567-2.982-10.4h0Z" transform="translate(2508.426 5519.222)" fill="#ffb6b6"/>
    <g id="Group_16" data-name="Group 16" transform="translate(2606.911 5870.832)">
      <path id="Path_52" data-name="Path 52" d="M124.975,381.371l-9.188.217-5.121-41.277,13.559-.32Z" transform="translate(-93.453 -339.991)" fill="#ffb6b6"/>
      <path id="Path_53" data-name="Path 53" d="M94.54,399.328h0a2.653,2.653,0,0,0,2.46,2.81h18.237a16.47,16.47,0,0,1,9.112-10.319l.505,10.319h9.408l-1.14-16.592s2.517-8.877-2.71-13.414-.993-3.906-.993-3.906l-2.056-10.269-14.216,1.672-.1,16.12-6.9,16-10.119,5a2.847,2.847,0,0,0-1.484,2.579h0Z" transform="translate(-94.54 -338.78)" fill="#2f2e41"/>
    </g>
    <g id="Group_17" data-name="Group 17" transform="translate(2546.491 5860.042)">
      <path id="Path_54" data-name="Path 54" d="M68.369,371.262l-9.188.217L54.06,330.2l13.559-.321Z" transform="translate(-36.848 -329.882)" fill="#ffb6b6"/>
      <path id="Path_55" data-name="Path 55" d="M37.935,389.22h0a2.653,2.653,0,0,0,2.46,2.81H58.631a16.47,16.47,0,0,1,9.112-10.319l.5,10.319h9.408l-1.14-16.592s2.517-8.877-2.71-13.414-.993-3.906-.993-3.906L70.757,347.85l-14.216,1.672-.1,16.12-6.9,16-10.119,5a2.848,2.848,0,0,0-1.484,2.579h0Z" transform="translate(-37.935 -328.671)" fill="#2f2e41"/>
    </g>
    <path id="Path_298" data-name="Path 298" d="M124.686,75.248,91.6,81c-2.28-5.834-17.583-45.416-18.528-51.128A25.74,25.74,0,0,1,96.7.212h0c14.4-1.074,23.168,1.622,24.393,15.335.429,4.807,4.554,17.683,5.815,22.341,6.955,25.7-.555,31.883-2.218,37.36Z" transform="translate(2510.901 5507.93)" fill="#2f2e41"/>
    <path id="Path_297" data-name="Path 297" d="M72.3,149.386l-2.158,33.087-20.5,101.779,1.439,71.209,18.7-2.877,5.754-65.455L108.005,213.4l4.211,152.849,20.14.719,14.154-179.5a60.9,60.9,0,0,0-10.2-38.8h0l-64.017.719Z" transform="translate(2509.345 5517.949)" fill="#05004e"/>
    <path id="Path_296" data-name="Path 296" d="M113.31,49.607h-26.4l-5.97,9.351L60.083,67.589l11.509,82-2.877,35.245c16.262,5.518,54,14.059,81.3-8.482l-24.474-44.026,5.754-61.859L120.144,60.323,113.31,49.607Z" transform="translate(2510.049 5511.273)" fill="#ffbd69"/>
    <path id="Path_300" data-name="Path 300" d="M77.7,64.181S65.47,59.146,59.715,68.5c-3.131,5.089-9.032,40-13.76,70.766-3.961,25.771-7.1,48.636-7.1,48.636l12.587,1.8,14.062-50.338,10.753-38.494L77.7,64.181Z" transform="translate(2508.618 5512.164)" fill="#ffbd69"/>
    <circle id="Ellipse_95" data-name="Ellipse 95" cx="19.945" cy="19.945" r="19.945" transform="translate(2588.81 5516.341)" fill="#ffb6b6"/>
    <g id="Group_14" data-name="Group 14" transform="translate(2926.144 5872.048)">
      <path id="Path_60" data-name="Path 60" d="M397.6,379.38l9.917,5.442,25.707-35.661-14.636-8.03Z" transform="translate(-393.351 -341.13)" fill="#ffb6b6"/>
      <path id="Path_61" data-name="Path 61" d="M431.968,395.788h0a9.714,9.714,0,0,1-1.067,3.062h0a3.839,3.839,0,0,1-5.213,1.519l-30.71-16.853a2.619,2.619,0,0,1-1.036-3.556l.7-1.279s.59-4.677,6.317-7.7c0,0,1.852,5.842,10.849,3.221l3.416-2.163,7.423,15.873,6.409,4.618c1.4,1.01,2.852,1.528,2.911,3.255h0Z" transform="translate(-393.619 -339.118)" fill="#2f2e41"/>
    </g>
    <g id="Group_13" data-name="Group 13" transform="translate(2948.126 5883.516)">
      <path id="Path_62" data-name="Path 62" d="M416.665,395.506h11.311l5.381-43.631h-16.7Z" transform="translate(-414.048 -351.874)" fill="#ffb6b6"/>
      <path id="Path_63" data-name="Path 63" d="M455.585,393.316h0a9.71,9.71,0,0,1,.538,3.2h0a3.839,3.839,0,0,1-3.839,3.839h-35.03a2.619,2.619,0,0,1-2.619-2.619v-1.458s-1.733-4.383,1.835-9.786c0,0,4.434,4.23,11.06-2.4l1.954-3.54L443.627,390.9l7.84.965c1.715.211,3.236-.033,4.118,1.453h0Z" transform="translate(-414.213 -349.941)" fill="#2f2e41"/>
    </g>
    <path id="Path_272" data-name="Path 272" d="M425.38,169.862l-4.69,32.727-6.1,178.744h21.431l23.164-164.717v86.524l-48.912,53.018,15.508,10.789,65.338-61.314,11.943-117.788-9.351-17.263Z" transform="translate(2533.647 5519.376)" fill="#05004e"/>
    <path id="Path_273" data-name="Path 273" d="M474.847,48.263l-20.2-.914-6.413,10.265L421.558,70.832l3.659,78.851-7.193,35.964s67.393,24.455,84.656,10.069l-4.815-51.069L501.612,71.9,484.2,63.368l-9.351-15.105Z" transform="translate(2534.17 5511.121)" fill="#da1212"/>
    <circle id="Ellipse_92" data-name="Ellipse 92" cx="20.89" cy="20.89" r="20.89" transform="translate(2979.835 5512.2)" fill="#ffb6b6"/>
    <path id="Path_285" data-name="Path 285" d="M448.5,42.131c1.517.148,1.6,3.084,3.045,3.526,1.319.4,3.62-1.326,3.846-3.205.18-1.5-1.088-2-2.885-5.128-1.056-1.838.659-1.344.6-3.957-.018-.778-2.882-5.508-1.4-7.581a5.1,5.1,0,0,1,2.4-2.083c1.832-.64,2.817.669,5.128.8,2.21.126-1.429,2.218,1.132.578,2.618-1.677,3.611-6.033,3.6-7.912-.015-1.933-.446,1.712,0,0,.225-.863,8.99,6.851,9.419,6.591,2.761-1.677,4.148-4.821,7.125-2.994,3.23,1.982,4.693,1.192,5.754.719.872-.388.154-7.8-.1-9-.707-3.307-4.364-4.853-4.648-4.968-1.892-.768-2.584-.207-3.686-1.122-1.565-1.3-.675-2.852-1.923-4.167-1.374-1.448-2.989,1.2-8.924,1.252-3.815.031-3.968-2.172-5.98-2.053a21.524,21.524,0,0,0-12.18,4.327,20.8,20.8,0,0,0-7.212,11.859c-.959,4.2-1.351,11.684,2.244,15.705a9.18,9.18,0,0,1,2.724,4.006c.613,2.28-.1,4.581.8,4.968.376.162.564-.215,1.122-.16Z" transform="translate(2535.714 5508.026)" fill="#2f2e41"/>
    <path id="Path_274" data-name="Path 274" d="M0,399.858a1.266,1.266,0,0,0,1.27,1.27H592.912a1.27,1.27,0,1,0,0-2.54H1.27A1.266,1.266,0,0,0,0,399.858Z" transform="translate(2506 5534.791)" fill="#ccc"/>
    <path id="Path_275" data-name="Path 275" d="M441.867,187.349H136.637a20.321,20.321,0,0,0-20.3,20.3V393.333a20.321,20.321,0,0,0,20.3,20.3h305.23a20.321,20.321,0,0,0,20.3-20.3V207.651A20.321,20.321,0,0,0,441.867,187.349Z" transform="translate(2513.84 5520.556)" fill="#fff"/>
    <path id="Path_276" data-name="Path 276" d="M441.867,187.349H136.637a20.321,20.321,0,0,0-20.3,20.3V393.333a20.321,20.321,0,0,0,20.3,20.3h305.23a20.321,20.321,0,0,0,20.3-20.3V207.651A20.321,20.321,0,0,0,441.867,187.349Zm18.167,144.422A79.73,79.73,0,0,1,380.3,411.5H136.637a18.167,18.167,0,0,1-18.167-18.167V207.651a18.167,18.167,0,0,1,18.167-18.167h305.23a18.167,18.167,0,0,1,18.167,18.167Z" transform="translate(2513.84 5520.556)" fill="#3f3d56"/>
    <path id="Path_294" data-name="Path 294" d="M142.724,196.027a12.62,12.62,0,0,1,.174-5.957L137.512,169.7l9.766-2.28,4.413,20.906a12.62,12.62,0,0,1,2.431,5.441c.979,4.946-.778,9.461-3.926,10.084s-6.493-2.881-7.472-7.827Z" transform="translate(2515.267 5519.212)" fill="#ffb6b6"/>
    <path id="Path_295" data-name="Path 295" d="M114.33,64.855s12.228-5.035,17.982,4.316,20.859,119.4,20.859,119.4l-12.587,1.8-24.815-88.832L114.33,64.855Z" transform="translate(2513.705 5512.209)" fill="#ffbd69"/>
    <path id="Path_278" data-name="Path 278" d="M396.759,200.778a12.783,12.783,0,0,1,2.1-5.627l-2.35-47.716,17.863-2.385-6.614,51.29a12.779,12.779,0,0,1,.542,5.98c-.674,5.037-3.8,8.775-6.989,8.349s-5.222-4.854-4.548-9.89h0Z" transform="translate(2532.719 5517.705)" fill="#ffb6b6"/>
    <path id="Path_277" data-name="Path 277" d="M442.649,71.32s-16.929-6.394-22.559-.6-24.32,70.4-24.32,70.4l1.751,48.113,13.336-2.3L442.648,71.32Z" transform="translate(2532.67 5512.532)" fill="#da1212"/>
    <path id="Path_291" data-name="Path 291" d="M247.428,358.036H217.477a2.738,2.738,0,0,0,0,5.476h29.951a2.738,2.738,0,0,0,0-5.476Z" transform="translate(2520.471 5532.057)" fill="#ffbd69"/>
    <path id="Path_287" data-name="Path 287" d="M294.428,358.036H264.477a2.738,2.738,0,0,0,0,5.476h29.951a2.738,2.738,0,0,0,0-5.476Z" transform="translate(2523.638 5532.057)" fill="#ffbd69"/>
    <path id="Path_279" data-name="Path 279" d="M341.428,358.036H311.477a2.738,2.738,0,0,0,0,5.476h29.951a2.738,2.738,0,0,0,0-5.476Z" transform="translate(2526.806 5532.057)" fill="#ffbd69"/>
    <g id="Group_15" data-name="Group 15" transform="translate(2989.35 5598.497)">
      <path id="Path_77" data-name="Path 77" d="M452.835,94.99a10.14,10.14,0,1,1,10.14,10.14A10.152,10.152,0,0,1,452.835,94.99Zm1.067,0a9.073,9.073,0,1,0,9.073-9.073A9.083,9.083,0,0,0,453.9,94.99Z" transform="translate(-452.835 -84.849)" fill="#ffbd69"/>
      <circle id="Ellipse_23" data-name="Ellipse 23" cx="5.337" cy="5.337" r="5.337" transform="translate(4.803 4.803)" fill="#ffbd69"/>
    </g>
    <path id="Path_280" data-name="Path 280" d="M474.39,102.349a12.619,12.619,0,0,1,2.648,5.339l36.2,30.625-10.47,14.619L470.1,113.36a12.62,12.62,0,0,1-4.705-3.658c-3.191-3.9-3.764-8.715-1.279-10.745s7.085-.512,10.276,3.392h0Z" transform="translate(2537.171 5514.539)" fill="#ffb6b6"/>
    <path id="Path_281" data-name="Path 281" d="M488.226,70.872s10.07-5.035,15.824,3.6,11.611,53.254,11.611,53.254,7.091,30.9-6.576,30.183-38.75-39.318-38.75-39.318l9.606-8.539,1.092-10.405,7.193-28.772Z" transform="translate(2537.695 5512.608)" fill="#da1212"/>
    <path id="Path_299" data-name="Path 299" d="M95.775,3.268C87.662,4.7,79.8,9.088,75.591,16.169s-11.921,16.947-6.33,23c1.932,2.091,4.394,3.674,6.133,5.929,2.958,3.837,3.385,9.228,1.91,13.843s-4.638,8.528-8.258,11.749A21.388,21.388,0,0,0,86.539,57.069c1.238-3.385,1.49-7.444-.628-10.36a26.581,26.581,0,0,0-4.17-3.842c-3.65-3.252-1.306-8.164-1.284-13.052s.637-8.289,4.316-11.509c2.533,2.025,10.934,1.536,14.135,1.016s12.154,11.775,13.917,9.054c3.452,4.437,1.09-4.706.442.878-.464,3.995-3.087,7.441-3.877,11.384a19.194,19.194,0,0,0,1.273,10.286,38.116,38.116,0,0,0,14.391,18.322c-3.783-5.35-7.726-11.2-7.6-17.747.092-4.859,8.31-14.887,9.76-19.526,2.774-8.876-2.726-18.711-8.631-25.894C113.392-.23,103.366,1.719,95.416,3.586" transform="translate(2510.535 5508.049)" fill="#2f2e41"/>
    <path id="Path_282" data-name="Path 282" d="M345.578,279.986c4.851,4.257-1.025,12.67-2.919,18.493A19.211,19.211,0,0,1,321,311.288a211.969,211.969,0,0,0-45.685-3.069,218.219,218.219,0,0,0-25,2.466l-.141.022a19.43,19.43,0,0,1-21.665-13.64c-1.612-5.411-6.625-12.834-2.478-17.08,12.8-13.105,6-17.486,4.492-22.77-2.36-8.282,11.37-12.816,19.937-11.943l1.071.108a317.66,317.66,0,0,0,37.946,1.473c3.181-.053,6.372-.171,9.553-.331q10.822-.533,21.637-1.806c8.381-.987,23.086,3.45,19.895,11.261-3.288,8.049-3.65,16.4,5.016,24.007Z" transform="translate(2521.124 5524.412)" fill="#05004e" opacity="0.7"/>
    <path id="Path_288" data-name="Path 288" d="M297.395,246.473V308.52a214.068,214.068,0,0,0-23.717-.352,218.2,218.2,0,0,0-25,2.466c1.121-10.386.406-20.953,8.422-24.827,9.916-4.8,1.11-24.2-7.2-40.475a317.673,317.673,0,0,0,37.946,1.473c3.181-.053,6.372-.171,9.553-.331Z" transform="translate(2522.758 5524.462)" fill="#3f3d56" opacity="0.7"/>
    <path id="Path_283" data-name="Path 283" d="M342.828,279.986c4.76,4.359-1.025,12.67-2.919,18.493a19.211,19.211,0,0,1-21.662,12.809,211.966,211.966,0,0,0-45.685-3.069c-7.45-9.617-10.3-18.444-3.448-24.006,7.76-6.287,10.46-21.743,17.612-37.359,3.181-.053,6.372-.171,9.553-.331q10.822-.533,21.637-1.806c8.38-.987,23.446,3.606,19.895,11.261-3.52,7.587-3.957,15.788,5.016,24.007Z" transform="translate(2523.873 5524.412)" fill="#da1212" opacity="0.7"/>
    <path id="Path_289" data-name="Path 289" d="M271.672,293.485H241.721a2.738,2.738,0,0,0,0,5.476h29.951a2.738,2.738,0,0,0,0-5.476Z" transform="translate(2522.105 5527.708)" fill="#3f3d56"/>
    <path id="Path_286" data-name="Path 286" d="M321.672,275.485H291.721a2.738,2.738,0,0,0,0,5.476h29.951a2.738,2.738,0,0,0,0-5.476Z" transform="translate(2525.474 5526.495)" fill="#3f3d56"/>
    <path id="Path_290" data-name="Path 290" d="M282.672,258.485H252.721a2.738,2.738,0,0,0,0,5.476h29.951a2.738,2.738,0,0,0,0-5.476Z" transform="translate(2522.846 5525.349)" fill="#3f3d56"/>
    <rect id="Rectangle_114" data-name="Rectangle 114" width="111.018" height="1.067" transform="translate(2652.997 5816.736)" fill="#3f3d56"/>
    <path id="Path_293" data-name="Path 293" d="M159.365,300.444a10.14,10.14,0,1,1,10.14-10.14A10.152,10.152,0,0,1,159.365,300.444Zm0-19.213a9.073,9.073,0,1,0,9.073,9.073A9.083,9.083,0,0,0,159.365,281.231Z" transform="translate(2516.056 5526.81)" fill="#3f3d56"/>
    <circle id="Ellipse_94" data-name="Ellipse 94" cx="5.337" cy="5.337" r="5.337" transform="translate(2670.084 5811.777)" fill="#05004e"/>
    <rect id="Rectangle_112" data-name="Rectangle 112" width="111.018" height="1.067" transform="translate(2833.629 5811.4)" fill="#3f3d56"/>
    <path id="Path_284" data-name="Path 284" d="M380.445,285.3a10.14,10.14,0,1,1,10.14,10.14A10.152,10.152,0,0,1,380.445,285.3Zm1.067,0a9.073,9.073,0,1,0,9.073-9.073A9.083,9.083,0,0,0,381.512,285.3Z" transform="translate(2531.637 5526.473)" fill="#3f3d56"/>
    <circle id="Ellipse_91" data-name="Ellipse 91" cx="5.337" cy="5.337" r="5.337" transform="translate(2916.885 5806.439)" fill="#da1212"/>
    <rect id="Rectangle_113" data-name="Rectangle 113" width="111.018" height="1.067" transform="translate(2683.951 5778.311)" fill="#3f3d56"/>
    <path id="Path_292" data-name="Path 292" d="M188.365,264.444a10.14,10.14,0,1,1,10.14-10.14A10.152,10.152,0,0,1,188.365,264.444Zm0-19.213a9.073,9.073,0,1,0,9.073,9.073A9.083,9.083,0,0,0,188.365,245.231Z" transform="translate(2518.01 5524.384)" fill="#3f3d56"/>
    <circle id="Ellipse_93" data-name="Ellipse 93" cx="5.337" cy="5.337" r="5.337" transform="translate(2701.038 5773.351)" fill="#ffbd69"/>
  </g>
</svg>
