<svg xmlns="http://www.w3.org/2000/svg" width="554.837" height="417.848" viewBox="0 0 554.837 417.848">
  <g id="Group_12" data-name="Group 12" transform="translate(1681 -5076)">
    <path id="Path_247" data-name="Path 247" d="M472.447,236.875c23.9-15.423,56.814-9.431,80.1,6.911a126.852,126.852,0,0,1,20.811,18.569c3.635,3.987,7.081,8.173,10.377,12.5.812,1.062,1.62,2.135,2.413,3.219q.813,1.1,1.613,2.213c6.685,9.292,12.813,19.067,18.813,28.753,14.977,24.18,30.344,49.081,53.165,66.057,4.7,3.5,11.261,6.646,16.078,3.307,4.18-2.9,4.359-9,3.408-13.994-3.537-18.513-16.294-33.854-29.847-46.951s-28.557-25.1-38.8-40.928-14.919-36.951-5.95-53.525c7.73-14.283,24.362-22.294,40.6-22.667s32,5.941,45.739,14.605,25.809,19.667,38.411,29.908c7.6,6.178,18.2,12.309,26.483,7.078,6.993-4.421,7.539-15.033,3.371-22.179s-11.606-11.636-18.738-15.824q-33.211-19.51-66.423-39.017c-6.793-3.986-13.734-8.1-18.748-14.179s-7.8-14.613-5.035-21.991c2.727-7.27,10.345-11.886,18.051-12.85s15.469,1.174,22.674,4.067c27,10.842,90.569,81.776,107.512,93.9,10.888,7.789,22.326,17.65,23.427,30.991,1.372,16.609-15.154,30.392-31.742,32s-32.661-5.6-47.481-13.22-29.944-16.031-46.578-17.09-35.3,7.833-39.24,24.027c-3.429,14.09,5.288,28.63,16.644,37.646,8.888,7.059,19.32,11.76,29.4,17.046,2.8,1.463,5.567,2.977,8.267,4.594a116.108,116.108,0,0,1,19.282,14.5,118.321,118.321,0,0,1,16.6,19.093,115.419,115.419,0,0,1,10.062,17.5q.648,1.4,1.259,2.842c.386.918.759,1.848,1.113,2.788,4.625,12.183,6.427,25.835.518,37.208-5.893,11.342-18.658,18.058-31.4,18.99a57.846,57.846,0,0,1-21.767-2.876,88.4,88.4,0,0,1-14.9-6.4c-22.068-11.844-39.539-30.626-55.495-49.935s-30.972-39.637-49.91-56.027-42.667-28.787-67.713-28.6S468,324.386,460.89,348.4c-10.369-17.866-17.38-38.233-16.454-58.868S455.092,248.078,472.447,236.875Z" transform="translate(-1948.196 4950.34)" fill="#3f3d56"/>
    <circle id="Ellipse_74" data-name="Ellipse 74" cx="2.752" cy="2.752" r="2.752" transform="translate(-1381.331 5248.469)" fill="#ffbd69"/>
    <circle id="Ellipse_75" data-name="Ellipse 75" cx="4.254" cy="4.254" r="4.254" transform="translate(-1486.534 5249.398)" fill="#da1212"/>
    <circle id="Ellipse_76" data-name="Ellipse 76" cx="1.572" cy="1.572" r="1.572" transform="translate(-1176.355 5217.119)" fill="#da1212"/>
    <circle id="Ellipse_77" data-name="Ellipse 77" cx="1.572" cy="1.572" r="1.572" transform="translate(-1208.161 5132.635)" fill="#da1212"/>
    <path id="Path_255" data-name="Path 255" d="M842.513,454.72a16.8,16.8,0,0,1,1.791-3.661c2.8,1.463,5.567,2.977,8.267,4.594a116.109,116.109,0,0,1,19.282,14.5,16.764,16.764,0,0,1-29.34-15.43Z" transform="translate(-2089.55 4834.548)" fill="#da1212"/>
    <circle id="Ellipse_78" data-name="Ellipse 78" cx="1.608" cy="1.608" r="1.608" transform="translate(-1449.119 5234.895)" fill="#f0f0f0"/>
    <circle id="Ellipse_79" data-name="Ellipse 79" cx="1.608" cy="1.608" r="1.608" transform="translate(-1252.153 5115.949)" fill="#f0f0f0"/>
    <circle id="Ellipse_80" data-name="Ellipse 80" cx="1.608" cy="1.608" r="1.608" transform="translate(-1266.628 5087.312)" fill="#f0f0f0"/>
    <circle id="Ellipse_81" data-name="Ellipse 81" cx="1.608" cy="1.608" r="1.608" transform="translate(-1152.791 5194.057)" fill="#f0f0f0"/>
    <circle id="Ellipse_82" data-name="Ellipse 82" cx="1.608" cy="1.608" r="1.608" transform="translate(-1237.238 5196.367)" fill="#f0f0f0"/>
    <circle id="Ellipse_83" data-name="Ellipse 83" cx="1.608" cy="1.608" r="1.608" transform="translate(-1282.051 5349.708)" fill="#f0f0f0"/>
    <circle id="Ellipse_84" data-name="Ellipse 84" cx="1.608" cy="1.608" r="1.608" transform="translate(-1332.57 5198.901)" fill="#f0f0f0"/>
    <circle id="Ellipse_85" data-name="Ellipse 85" cx="1.608" cy="1.608" r="1.608" transform="translate(-1334.828 5168.501)" fill="#f0f0f0"/>
    <path id="Path_256" data-name="Path 256" d="M848.125,532.238c-2.387-.1-4.7-.109-6.937-.032-13.757.475-22.92,4.417-25.14,10.814s2.531,15.168,13.036,24.063q1.558,1.319,3.248,2.618A51.55,51.55,0,0,1,848.125,532.238Z" transform="translate(-2080.272 4805.69)" fill="none"/>
    <path id="Path_257" data-name="Path 257" d="M844.474,544.7a51.211,51.211,0,0,1,12.943-20.226q1.16-1.11,2.386-2.146a51.584,51.584,0,0,1,28.667-11.991,115.413,115.413,0,0,1,10.062,17.5q.648,1.4,1.259,2.842c.386.918.759,1.848,1.114,2.788,4.625,12.183,6.426,25.835.518,37.208-5.893,11.342-18.658,18.058-31.4,18.99a57.846,57.846,0,0,1-21.766-2.876,51.469,51.469,0,0,1-6.526-21.94c-.063-.97-.094-1.942-.1-2.918A51.328,51.328,0,0,1,844.474,544.7Z" transform="translate(-2089.563 4813.454)" fill="#ffbd69"/>
    <path id="Path_258" data-name="Path 258" d="M812.643,539.921c2.582-7.44,12.243-11.82,27.206-12.338,2.994-.105,6.287,1.14,9.4.153,15.1-4.789,28.8-1.66,39.988,8.355.386.918.759,1.848,1.114,2.788-.149-.056-.3-.108-.449-.16-15.113-5.245-30.116-8.306-43.039-8.837-2.388-.1-5.236-1.478-6.937-.03-13.661,11.626-22.9,6.755-25.141,10.814-3.272,5.929,2.533,15.167,13.037,24.063q1.559,1.321,3.246,2.615c.01.976.041,1.947.1,2.918q-2.542-1.879-4.816-3.8C814.931,556.784,810.062,547.358,812.643,539.921Z" transform="translate(-2079.01 4808.046)" fill="#e4e4e4"/>
    <circle id="Ellipse_86" data-name="Ellipse 86" cx="1.608" cy="1.608" r="1.608" transform="translate(-1211.372 5397.45)" fill="#f0f0f0"/>
    <circle id="Ellipse_87" data-name="Ellipse 87" cx="1.608" cy="1.608" r="1.608" transform="translate(-1239.816 5376.772)" fill="#f0f0f0"/>
    <circle id="Ellipse_88" data-name="Ellipse 88" cx="15.634" cy="15.634" r="15.634" transform="translate(-1232.08 5353.089)" fill="#f0f0f0"/>
    <path id="Path_248" data-name="Path 248" d="M509.2,311.783c3.655.172,11.213,1.987,19.4,4.333s17.065,5.214,25.831,8.048q23.017,7.436,46.032,14.867,3.164,1.02,6.346,2.058c.812,1.062,1.62,2.135,2.413,3.219-1.864-.659-3.736-1.3-5.6-1.9-7.974-2.591-14.893-4.3-22.631-6.658-11.909-3.625-24.473-8.385-36.658-12.818S518.165,313.715,509.2,311.783Z" transform="translate(-1971.27 4884.109)" fill="#f0f0f0" opacity="0.3"/>
    <path id="Path_259" data-name="Path 259" d="M932.531,261.768l34.514,57.3-32.567-58.435a1.191,1.191,0,1,0-1.947,1.14Z" transform="translate(-2121.766 4902.651)" fill="#f0f0f0" opacity="0.3"/>
    <circle id="Ellipse_89" data-name="Ellipse 89" cx="1.608" cy="1.608" r="1.608" transform="translate(-1207.677 5330.295)" fill="#f0f0f0"/>
    <circle id="Ellipse_90" data-name="Ellipse 90" cx="10.306" cy="10.306" r="10.306" transform="translate(-1498.359 5307.59)" fill="#da1212"/>
    <path id="Path_260" data-name="Path 260" d="M446.476,475.01a7.369,7.369,0,0,1-4.711-10.271L423.1,446.366l13.309-2.84,15.681,17.883a7.409,7.409,0,0,1-5.617,13.6Z" transform="translate(-1940.634 4837.228)" fill="#a0616a"/>
    <path id="Path_249" data-name="Path 249" d="M300.756,270.427l10.408,6.86,12.182,2.854s9.662,69.052,14.409,73.194.747,4.535,2.034,10.248,4.264,17.4,4.264,17.4c-28.92,17.926-54.757,20.115-76.8,2.947a5.187,5.187,0,0,1,2.425-6.033c3.727-2.315-4.357-11.385-1.306-13.2s-2.34-15.4-2.34-15.4l.941-29.179-2.619-4.476,3.69-28.729,9.512-4.227,3.257-9.654Z" transform="translate(-1884.143 4898.825)" fill="#da1212"/>
    <path id="Path_250" data-name="Path 250" d="M327.867,274.187l17.161,5.715s18.983-2,19.753,26.255-2.769,43.423-2.769,43.423,39.489,79.41-3.287,55.956l-12.5-49.22-12.883-77.3Z" transform="translate(-1906.744 4897.487)" fill="#05004e"/>
    <path id="Path_251" data-name="Path 251" d="M354.584,342.421l8.9-1.229s.859,13.42,5.117,15.454,2.823,2.369,3.325,4.522-3.786,8.119-.413,9.6,32.852,38.649,32.852,38.649l17.392-16.1c-1.2-3.239-6.947-.6-7.308-4.037-.454-5.191-9.558-19.372-11.5-21.191s-1.172-5.024-2.176-9.33-.307-.313-1.981-7.49-24.354-43.746-25.143-50.373-10.022-10.527-10.022-10.527l-7.177,1.674Z" transform="translate(-1916.251 4891.729)" fill="#05004e"/>
    <path id="Path_265" data-name="Path 265" d="M68.581,593.674l10.476,2.751,15.6-39.1-15.462-4.06Z" transform="translate(-1705.405 4879.123)" fill="#a0616a"/>
    <path id="Path_268" data-name="Path 268" d="M232.881,750.856l32.217,8.46.107-.407a12.965,12.965,0,0,0-9.246-15.833h0l-4.712-6.01-12.152,1.581-2.812-.739Z" transform="translate(-1872.944 4732.772)" fill="#2f2e41"/>
    <path id="Path_266" data-name="Path 266" d="M151.956,605.084h10.831l5.153-41.78H151.953Z" transform="translate(-1735.072 4875.55)" fill="#a0616a"/>
    <path id="Path_270" data-name="Path 270" d="M320.693,761.422H354V761a12.965,12.965,0,0,0-12.964-12.965h0l-6.084-4.616L323.6,748.035h-2.908Z" transform="translate(-1904.191 4730.512)" fill="#2f2e41"/>
    <path id="Path_261" data-name="Path 261" d="M265.134,442.641c-2.617,3.271-1.308,14.391-1.308,14.391s-4.579,35.978-2.617,39.248-1.308,5.887-3.271,10.466-3.925,15.7-3.925,15.7c-11.12,9.158-10.466,51.023-10.466,51.023l-3.925,37.286c1.308,3.925,19.624,4.579,22.241,3.925s28.128-92.887,28.128-92.887-1.308,88.963-1.308,92.887,17.662,1.962,21.587,1.962,28.782-160.264,28.782-160.264V447.22l-3.271-4.579S267.75,439.37,265.134,442.641Z" transform="translate(-1875.343 4838.061)" fill="#05004e"/>
    <path id="Path_252" data-name="Path 252" d="M275.7,277.187l-16.064,10.235-7.77,6.513,10.306,65.7s-15.659,59.723,9.018,56.041,23.293-57.354,23.293-57.354Z" transform="translate(-1879.7 4896.419)" fill="#05004e"/>
    <path id="Path_262" data-name="Path 262" d="M301.885,413.982a7.369,7.369,0,0,1-10.657-3.758l-26.181.632,7.215-11.539,23.755,1.168a7.409,7.409,0,0,1,5.867,13.5Z" transform="translate(-1884.39 4852.959)" fill="#a0616a"/>
    <circle id="Ellipse_73" data-name="Ellipse 73" cx="20.689" cy="20.689" r="20.689" transform="translate(-1616.256 5123.343)" fill="#a0616a"/>
    <path id="Path_253" data-name="Path 253" d="M264.219,200.192c2.323-3.594,6.683-5.99,10.909-5.316a14.9,14.9,0,0,1,24.961-8.689,4.632,4.632,0,0,1,4.53-.453,9.552,9.552,0,0,1,3.68,2.954,21.437,21.437,0,0,1,3,21.809c.517-1.878-1.365-3.644-3.267-4.066s-3.9-.023-5.824-.3c-2.471-.352-4.693-1.785-7.168-2.108a16.317,16.317,0,0,0-6.2.8,16.812,16.812,0,0,1-6.2.832c-2.083-.247-4.767,7.647-4.73,13.207.007,1.054-.21,2.407-1.24,2.63-1.268.275-2-1.475-3.21-1.952A2.233,2.233,0,0,0,270.724,221a3.641,3.641,0,0,0,.7,3.26,10.758,10.758,0,0,0,2.608,2.263l-.5.413a2.958,2.958,0,0,1-3.734.464,8.059,8.059,0,0,1-2.681-3.053,35.921,35.921,0,0,1-4.917-11.784A17.161,17.161,0,0,1,264.219,200.192Z" transform="translate(-1883.253 4930.247)" fill="#2f2e41"/>
    <path id="Path_254" data-name="Path 254" d="M251.246,301.786l-9.3-7.967s-10.855,3.387-12.7,10.508c-14.488,18.525-22.29,40.16-24.386,64.451,18.915,7.144,42.075,9.678,66.992,10.306l-5.153-19.325-35.428-6.442Z" transform="translate(-1862.975 4890.501)" fill="#05004e"/>
    <path id="Path_269" data-name="Path 269" d="M212.266,749.37l-4.966-7.981-.992,4.561c-.174.8-.348,1.61-.509,2.416-1.411-1.2-2.912-2.319-4.38-3.388q-6.764-4.909-13.521-9.83l1.411,8.181c.87,5.037,1.778,10.178,3.929,14.783.238.522.5,1.037.773,1.54h20.961a6.755,6.755,0,0,0,.348-1.443.5.5,0,0,0,.006-.1C215.655,754.987,213.928,752.043,212.266,749.37Z" transform="translate(-1856.937 4733.456)" fill="#f2f2f2"/>
    <path id="Path_267" data-name="Path 267" d="M510.058,728.129l9.4-15.1,1.877,8.628c.329,1.511.658,3.047.963,4.57,2.669-2.279,5.508-4.387,8.286-6.41q12.8-9.286,25.58-18.6L553.49,716.7c-1.645,9.53-3.364,19.255-7.434,27.968-.451.987-.938,1.962-1.463,2.913H504.939a12.783,12.783,0,0,1-.658-2.73.948.948,0,0,1-.012-.183C503.647,738.755,506.914,733.186,510.058,728.129Z" transform="translate(-1969.489 4745.528)" fill="#c4c4c4"/>
    <path id="Path_263" data-name="Path 263" d="M473.925,681.878H430.782a7.424,7.424,0,0,1-7.415-7.415V523.1a7.424,7.424,0,0,1,7.415-7.415h43.143a7.424,7.424,0,0,1,7.415,7.415v151.36a7.424,7.424,0,0,1-7.415,7.416Z" transform="translate(-1940.728 4811.55)" fill="#05004e"/>
    <path id="Path_264" data-name="Path 264" d="M472.278,514.214H450.154a2.79,2.79,0,0,1-2.787-2.787v-7.952a2.79,2.79,0,0,1,2.787-2.787h22.124a2.79,2.79,0,0,1,2.787,2.787v7.953a2.79,2.79,0,0,1-2.787,2.787Z" transform="translate(-1949.268 4816.888)" fill="#3f3d56"/>
    <path id="Path_271" data-name="Path 271" d="M436.613,773.185l-266.518.2a.767.767,0,1,1,0-1.534l266.518-.2a.767.767,0,0,1,0,1.534Z" transform="translate(-1850.329 4720.466)" fill="#cacaca"/>
  </g>
</svg>
