<svg xmlns="http://www.w3.org/2000/svg" width="585.087" height="420.364" viewBox="0 0 585.087 420.364">
  <g id="Group_11" data-name="Group 11" transform="translate(5589 -10662)">
    <path id="Path_237" data-name="Path 237" d="M260.584,717.629c-.007.021-.007.049-.014.07H215.307c-.852-.538-1.69-1.1-2.514-1.662a84.958,84.958,0,0,1-14.017-11.9,67.527,67.527,0,0,1-11.866-17.467c-5.971-12.739-7.808-27.231-3.185-40.326a.007.007,0,0,1,0,0l.005,0c.112-.328.237-.663.363-1,.189.328.37.65.566.971l.007.007a94.531,94.531,0,0,0,8.8,12.411v.007c.251.3.5.6.761.894a.006.006,0,0,0,0,0l.005,0a98.538,98.538,0,0,0,28.222,22.74c.035.021.063.035.1.056a.83.83,0,0,0,.112.056c.007.007.014.007.021.014,2.382,1.285,4.826,2.458,7.312,3.52v.007c1.956.845,3.946,1.613,5.95,2.326a125.9,125.9,0,0,1,12.976,4.847c3.981,1.921,7.487,4.414,9.771,8.164.175.307.349.608.51.915l-1.334,9.233,2.661-.014-.251,4.54-.07,1.313Z" transform="translate(-5770.125 10363.268)" fill="#cbcbcb"/>
    <path id="Path_242" data-name="Path 242" d="M250.473,717.557h-.957c-.091-.559-.182-1.11-.286-1.662a35.6,35.6,0,0,0-1.1-4.463c-.21-.656-.447-1.3-.719-1.934-1.543-3.618-4.2-6.8-8.122-7.857a14.953,14.953,0,0,0-3.5-.5c-2.34-.1-4.714.2-7.04.328-.573.028-1.152.049-1.711.042h-.014a20.966,20.966,0,0,1-8.793-1.774,33.174,33.174,0,0,1-9.205-6.537,71.176,71.176,0,0,1-4.98-5.28v-.007c-.21-.231-.412-.468-.615-.712a84.5,84.5,0,0,1-9.645-14.359,80.549,80.549,0,0,1-3.722-7.948.369.369,0,0,1-.035-.077,84.742,84.742,0,0,1-5.238-18.619.007.007,0,0,1,0-.005l.005,0c-.056-.286-.1-.58-.14-.866-.091-.594.852-.622.936-.028.042.293.084.573.133.866l.007.007a84.178,84.178,0,0,0,4.959,17.851v.007c.119.293.237.58.356.866a83.456,83.456,0,0,0,13.3,21.93l.007.014c.056.07.119.133.182.2a.026.026,0,0,1,.007.021c.007-.007.007,0,.007,0,1.292,1.529,2.647,3,4.058,4.421a36.166,36.166,0,0,0,8.968,6.9,19.945,19.945,0,0,0,8.988,2.193c.314,0,.629.007.943,0q.377,0,.754-.021c2.368-.112,4.77-.412,7.152-.37a19.327,19.327,0,0,1,3.227.335,12.682,12.682,0,0,1,8.367,6.132,22.157,22.157,0,0,1,2.109,4.77c.175.545.321,1.1.468,1.655v.007c.223.894.419,1.8.587,2.717a.405.405,0,0,1,.014.091C250.291,716.447,250.382,717.006,250.473,717.557Z" transform="translate(-5771.188 10363.409)" fill="#fff"/>
    <path id="Path_245" data-name="Path 245" d="M205.846,705.336a12.584,12.584,0,0,1-16.261-1.044c-.433-.421.2-1.114.635-.692a11.653,11.653,0,0,0,15.128.94c.483-.363.978.435.5.8Z" transform="translate(-5772.633 10345.736)" fill="#fff"/>
    <path id="Path_244" data-name="Path 244" d="M242.92,717.294a24.255,24.255,0,0,0-3.836-17.255c-.338-.5.458-1,.8-.5a25.228,25.228,0,0,1,3.955,17.963c-.095.6-1.009.384-.915-.21Z" transform="translate(-5787.58 10346.983)" fill="#fff"/>
    <path id="Path_246" data-name="Path 246" d="M192.841,669.994a7.123,7.123,0,0,0,4.046-5.414c.087-.6,1-.385.915.21a7.982,7.982,0,0,1-4.463,6,.485.485,0,0,1-.647-.149.472.472,0,0,1,.149-.647Z" transform="translate(-5773.593 10357.572)" fill="#fff"/>
    <path id="Path_235" data-name="Path 235" d="M287.79,676.963l-.384,3.541-6.111-.091-.922,6.383-.161,1.1v.007l-.629,4.365L278.25,701.5l2.661-.014-.251,4.54-.07,1.313.37.279.084.07.028.021c-.077.154-.161.307-.244.468.049-.168.084-.321.119-.489H263.262c-.328-.552-.65-1.1-.964-1.662a121.914,121.914,0,0,1-7.2-14.75c-.126-.314-.258-.629-.37-.95v-.007a91.745,91.745,0,0,1-4.351-14.3v-.007a79.632,79.632,0,0,1-1.306-8.088,67.387,67.387,0,0,1,1.041-21.029.8.8,0,0,0,.028-.1c2.787-13.193,9.582-25.387,20.344-33.111.447-.335.908-.65,1.376-.957.007-.007.007-.007.014-.007l.005,0a.007.007,0,0,0,0-.005c.293-.188.58-.377.873-.566-.042.377-.091.754-.126,1.131a92.8,92.8,0,0,0-.447,15.2v.014c.007.391.028.782.056,1.18v.014a98.886,98.886,0,0,0,8.877,35.2.432.432,0,0,0,.035.084c.014.035.028.063.042.1a94.208,94.208,0,0,0,6.6,11.908Z" transform="translate(-5790.5 10373.281)" fill="#cbcbcb"/>
    <path id="Path_238" data-name="Path 238" d="M278.777,612.3c-.14.258-.286.524-.417.787q-1.565,2.958-2.88,6.044a82.407,82.407,0,0,0-3.9,11.194c-.083.3-.166.6-.241.906a83.3,83.3,0,0,0-2.581,25.558c0,.085.007.162.014.246q.167,3.011.578,6a36.163,36.163,0,0,0,3,10.908c.219.451.451.893.694,1.319a19.093,19.093,0,0,0,2.1,2.935,19.509,19.509,0,0,0,1.838,1.874c.395.357.8.706,1.227,1.036.246.192.5.382.75.573.209.141.411.291.62.432,2.168,1.484,4.507,2.8,6.528,4.5l-.159,1.1a56.633,56.633,0,0,0-6.534-4.582,26.465,26.465,0,0,1-3.832-3.083c-.155-.158-.316-.314-.465-.48a18.677,18.677,0,0,1-2.152-2.67c-.323-.476-.627-.969-.914-1.487a33.448,33.448,0,0,1-3.407-10.753,72.222,72.222,0,0,1-.8-7.225c-.026-.314-.043-.623-.055-.94a85.615,85.615,0,0,1,7.083-38.293q1.258-2.884,2.744-5.68c.126-.256.26-.505.4-.763C278.3,611.229,279.062,611.771,278.777,612.3Z" transform="translate(-5796.232 10373.462)" fill="#fff"/>
    <path id="Path_243" data-name="Path 243" d="M263.2,672.452a12.584,12.584,0,0,1-12.355-10.624c-.092-.6.831-.768.923-.17a11.652,11.652,0,0,0,11.513,9.859C263.89,671.518,263.805,672.453,263.2,672.452Z" transform="translate(-5791.152 10358.458)" fill="#fff"/>
    <path id="Path_239" data-name="Path 239" d="M282.389,704.318a24.255,24.255,0,0,0,7.326-16.087c.032-.6.967-.521.935.081a25.228,25.228,0,0,1-7.657,16.724c-.435.42-1.037-.3-.6-.719Z" transform="translate(-5800.621 10350.457)" fill="#fff"/>
    <path id="Path_241" data-name="Path 241" d="M272.621,637.492a7.123,7.123,0,0,0,6.49-1.887c.43-.426,1.031.3.6.719a7.982,7.982,0,0,1-7.175,2.1.485.485,0,0,1-.427-.508.472.472,0,0,1,.508-.427Z" transform="translate(-5797.566 10366.243)" fill="#fff"/>
    <path id="Path_208" data-name="Path 208" d="M394.505,749.4a.829.829,0,0,1-.831.831H197.919a.831.831,0,1,1,0-1.662H393.674a.829.829,0,0,1,.831.831Z" transform="translate(-5774.939 10332.135)" fill="#ccc"/>
    <path id="Path_222" data-name="Path 222" d="M908.393,256.406H781.832a4.128,4.128,0,0,1,0-8.255H908.393a4.128,4.128,0,1,1,0,8.255Z" transform="translate(-5950.051 10483.059)" fill="#05004e"/>
    <path id="Path_218" data-name="Path 218" d="M908.393,279.76H781.831a4.128,4.128,0,1,1,0-8.256H908.393a4.128,4.128,0,1,1,0,8.256Z" transform="translate(-5950.052 10476.015)" fill="#05004e"/>
    <path id="Path_215" data-name="Path 215" d="M836.693,303.113H781.831a4.128,4.128,0,1,1,0-8.256h54.862a4.128,4.128,0,0,1,0,8.256Z" transform="translate(-5950.052 10468.972)" fill="#05004e"/>
    <path id="Path_212" data-name="Path 212" d="M908.393,389.22H781.832a4.128,4.128,0,0,1,0-8.255H908.393a4.128,4.128,0,1,1,0,8.255Z" transform="translate(-5950.051 10443.003)" fill="#ffbd69"/>
    <path id="Path_209" data-name="Path 209" d="M908.393,412.573H781.832a4.128,4.128,0,0,1,0-8.256H908.393a4.128,4.128,0,1,1,0,8.256Z" transform="translate(-5950.052 10435.96)" fill="#ffbd69"/>
    <path id="Path_207" data-name="Path 207" d="M836.693,435.927H781.832a4.128,4.128,0,0,1,0-8.256h54.862a4.128,4.128,0,0,1,0,8.256Z" transform="translate(-5950.052 10428.916)" fill="#ffbd69"/>
    <path id="Path_202" data-name="Path 202" d="M908.393,529.336H781.831a4.128,4.128,0,0,1,0-8.255H908.393a4.128,4.128,0,1,1,0,8.255Z" transform="translate(-5950.052 10400.744)" fill="#ffbd69"/>
    <path id="Path_201" data-name="Path 201" d="M908.393,552.689H781.831a4.128,4.128,0,0,1,0-8.256H908.393a4.128,4.128,0,1,1,0,8.255Z" transform="translate(-5950.052 10393.701)" fill="#ffbd69"/>
    <path id="Path_200" data-name="Path 200" d="M836.693,576.043H781.831a4.128,4.128,0,1,1,0-8.255h54.862a4.128,4.128,0,1,1,0,8.256Z" transform="translate(-5950.052 10386.657)" fill="#ffbd69"/>
    <path id="Path_204" data-name="Path 204" d="M675.089,428.8H598.9a7.711,7.711,0,0,1-7.7-7.7V371.118a7.71,7.71,0,0,1,7.7-7.7h76.193a7.711,7.711,0,0,1,7.7,7.7V421.1A7.711,7.711,0,0,1,675.089,428.8Z" transform="translate(-5893.801 10448.295)" fill="#ffbd69"/>
    <path id="Path_205" data-name="Path 205" d="M672.344,372.359H606.863a7.022,7.022,0,0,0-7.015,7.011v38.872a7.025,7.025,0,0,0,7.015,7.015h41.755a30.768,30.768,0,0,0,30.738-30.738V379.37A7.019,7.019,0,0,0,672.344,372.359Z" transform="translate(-5896.411 10445.599)" fill="#fff"/>
    <path id="Path_210" data-name="Path 210" d="M661.131,383.387h0l-.2.353c1.742-4.293.158-9.583-2.949-12.82s-7.427-4.717-11.681-5.3a18.973,18.973,0,0,0-9.438.733c-4.348,1.675-7.67,5.552-10.443,9.586-1.269,1.845-2.516,3.948-2.39,6.254.117,2.14,1.388,3.956,2.428,5.771s1.909,4.068,1.162,6.049a11.883,11.883,0,0,1-2.148,3,4.02,4.02,0,0,0-1.022,3.484,2.842,2.842,0,0,0,2.117,1.84,7.486,7.486,0,0,0,2.813-.067l24.245-3.663a10.333,10.333,0,0,0,7.5-15.215Z" transform="translate(-5903.703 10447.712)" fill="#2f2e41"/>
    <circle id="Ellipse_65" data-name="Ellipse 65" cx="11.854" cy="11.854" r="11.854" transform="translate(-5272.459 10822.437)" fill="#ffb9b9"/>
    <path id="Path_206" data-name="Path 206" d="M672,433.157a30.563,30.563,0,0,1-18.12,5.924H617.5c-.073-.059-.143-.119-.216-.181l3.392-9.466a10.18,10.18,0,0,1,8.647-5.938l2.158-.132,5.146-4.438s13.866-.5,13.66-.732l8.4,5.052-.007-.035,3.3.2a10.175,10.175,0,0,1,8.647,5.938Z" transform="translate(-5901.67 10431.774)" fill="#05004e"/>
    <path id="Path_211" data-name="Path 211" d="M655.681,378.383c-.306-1.619-1.957-2.359-3.372-2.718a32.477,32.477,0,0,0-12.564-.69c-3.057.436-6.186,1.4-8.4,3.783a11.3,11.3,0,0,0-2.858,7.279,8.671,8.671,0,0,0,1.037,4.624,4.286,4.286,0,0,0,3.563,2.3l.142.495a21.579,21.579,0,0,0,14.962-10.022,12.841,12.841,0,0,1-3.751,6.06,23.372,23.372,0,0,0,10.089-7.776A4.4,4.4,0,0,0,655.681,378.383Z" transform="translate(-5905.043 10444.905)" fill="#2f2e41"/>
    <path id="Path_214" data-name="Path 214" d="M675.089,295.99H598.9a7.711,7.711,0,0,1-7.7-7.7V238.3a7.71,7.71,0,0,1,7.7-7.7h76.193a7.711,7.711,0,0,1,7.7,7.7v49.984A7.711,7.711,0,0,1,675.089,295.99Z" transform="translate(-5893.801 10488.352)" fill="#ffbd69"/>
    <path id="Path_216" data-name="Path 216" d="M672.344,239.545H606.863a7.023,7.023,0,0,0-7.015,7.011v38.872a7.025,7.025,0,0,0,7.015,7.015h41.755a30.763,30.763,0,0,0,30.738-30.738V246.556a7.019,7.019,0,0,0-7.011-7.011Z" transform="translate(-5896.411 10485.654)" fill="#fff"/>
    <circle id="Ellipse_71" data-name="Ellipse 71" cx="5.584" cy="5.584" r="5.584" transform="translate(-5278.13 10721.573)" fill="#2f2e41"/>
    <circle id="Ellipse_69" data-name="Ellipse 69" cx="14.146" cy="14.146" r="14.146" transform="translate(-5277.757 10725.668)" fill="#2f2e41"/>
    <circle id="Ellipse_70" data-name="Ellipse 70" cx="11.495" cy="11.495" r="11.495" transform="translate(-5273.936 10730.966)" fill="#9e616a"/>
    <path id="Path_220" data-name="Path 220" d="M651.237,246.651a13.168,13.168,0,0,0-20.019,11.492c5.858,1.471,12.011,2.6,18.258.352l1.475-3.61.87,3.613c1.9.778,3.81,1.435,5.717-.008A13.445,13.445,0,0,0,651.237,246.651Z" transform="translate(-5905.871 10484.092)" fill="#2f2e41"/>
    <path id="Path_219" data-name="Path 219" d="M619.269,220.246a11.422,11.422,0,0,0-11.921,1.837,12.919,12.919,0,0,0-4.123,11.5c.633,4.287,3.239,7.979,5.642,11.585s4.749,7.559,4.747,11.892a11.789,11.789,0,0,1-11.765,11.781c3.663,1.577,7.487,3.185,11.471,3s8.16-2.748,8.81-6.683c.468-2.835-.923-5.6-2.083-8.229a58.205,58.205,0,0,1-4.068-13.392,13.462,13.462,0,0,1,.078-6.631,7.786,7.786,0,0,1,7.735-5.11l1.316-1.184a10.248,10.248,0,0,0-5.838-10.362Z" transform="translate(-5897.014 10491.751)" fill="#2f2e41"/>
    <path id="Path_217" data-name="Path 217" d="M668.395,301.962a30.515,30.515,0,0,1-15.759,4.358h-39.4l-.063-.052,3.392-9.47a10.176,10.176,0,0,1,8.647-5.934l2.158-.133,5.146-4.438s13.866-.5,13.66-.736l8.4,5.052-.007-.031,3.3.2a10.165,10.165,0,0,1,8.647,5.934Z" transform="translate(-5900.428 10471.777)" fill="#05004e"/>
    <path id="Path_197" data-name="Path 197" d="M675.089,568.92H598.9a7.711,7.711,0,0,1-7.7-7.7V511.234a7.71,7.71,0,0,1,7.7-7.7h76.193a7.711,7.711,0,0,1,7.7,7.7v49.984A7.711,7.711,0,0,1,675.089,568.92Z" transform="translate(-5893.801 10406.037)" fill="#ffbd69"/>
    <path id="Path_198" data-name="Path 198" d="M672.344,512.475H606.864a7.022,7.022,0,0,0-7.015,7.011v38.872a7.025,7.025,0,0,0,7.015,7.015h41.755a30.768,30.768,0,0,0,30.738-30.738V519.486a7.019,7.019,0,0,0-7.012-7.011Z" transform="translate(-5896.411 10403.34)" fill="#fff"/>
    <circle id="Ellipse_60" data-name="Ellipse 60" cx="15.772" cy="15.772" r="15.772" transform="translate(-5272.636 10908.998)" fill="#2f2e41"/>
    <circle id="Ellipse_61" data-name="Ellipse 61" cx="14.09" cy="14.09" r="14.09" transform="translate(-5270.948 10914.435)" fill="#ffb8b8"/>
    <path id="Path_199" data-name="Path 199" d="M673.623,572.663a30.6,30.6,0,0,1-19.117,6.684H619.368l3.333-9.3a10.179,10.179,0,0,1,8.647-5.937l2.158-.133,5.146-4.438s13.866-.5,13.661-.732l8.4,5.052-.007-.035,3.3.2a10.175,10.175,0,0,1,8.647,5.938Z" transform="translate(-5902.298 10389.366)" fill="#05004e"/>
    <path id="Path_203" data-name="Path 203" d="M664.273,516.543a31.163,31.163,0,0,0,.136-3.165,14.892,14.892,0,0,0-1.124-6.1,9.373,9.373,0,0,0-4.9-4.738,8.948,8.948,0,0,0-6.709.006,13.513,13.513,0,0,0-6.372-2.32,7.128,7.128,0,0,0-6.075,2.578,9.916,9.916,0,0,1-1.061,1.379c-1.126,1.042-2.836.892-4.333.679l2.014,1.726-2.437.637,2.844,1.725c-2.752,1.652-4,5.257-3.672,8.532a18.044,18.044,0,0,0,3.6,8.455c.714-1.506.56-3.308.548-5a11.325,11.325,0,0,1,.1-1.646c6.047,1.449,12.365,2.38,18.772.078l1.286-3.147.541.055.745,3.095c1.689.69,3.381,1.294,5.074.66.082.478.132.966.17,1.435.145-.561.271-1.126.385-1.693a5.017,5.017,0,0,0,.641-.41A13.781,13.781,0,0,0,664.273,516.543Z" transform="translate(-5906.266 10407.04)" fill="#2f2e41"/>
    <path id="Path_229" data-name="Path 229" d="M873.53,163.562H544.9a1.843,1.843,0,0,1-1.841-1.841V150.894a1.843,1.843,0,0,1,1.841-1.841H873.53a1.843,1.843,0,0,1,1.841,1.841v10.828A1.843,1.843,0,0,1,873.53,163.562Z" transform="translate(-5879.284 10512.946)" fill="#ffbd69"/>
    <circle id="Ellipse_90" data-name="Ellipse 90" cx="2.613" cy="2.613" r="2.613" transform="translate(-5328.154 10666.113)" fill="#fff"/>
    <circle id="Ellipse_91" data-name="Ellipse 91" cx="2.613" cy="2.613" r="2.613" transform="translate(-5318.235 10666.113)" fill="#fff"/>
    <circle id="Ellipse_92" data-name="Ellipse 92" cx="2.613" cy="2.613" r="2.613" transform="translate(-5308.314 10666.113)" fill="#fff"/>
    <path id="Path_232" data-name="Path 232" d="M997.023,155.378H985.6a.846.846,0,0,1,0-1.692h11.423a.846.846,0,1,1,0,1.692Z" transform="translate(-6012.498 10511.549)" fill="#fff"/>
    <path id="Path_231" data-name="Path 231" d="M997.023,159.921H985.6a.846.846,0,0,1,0-1.692h11.423a.846.846,0,1,1,0,1.692Z" transform="translate(-6012.498 10510.18)" fill="#fff"/>
    <path id="Path_230" data-name="Path 230" d="M997.023,164.464H985.6a.846.846,0,0,1,0-1.692h11.423a.846.846,0,1,1,0,1.692Z" transform="translate(-6012.498 10508.809)" fill="#fff"/>
    <circle id="Ellipse_66" data-name="Ellipse 66" cx="4.726" cy="4.726" r="4.726" transform="translate(-5077.567 10763.757)" fill="#05004e"/>
    <circle id="Ellipse_67" data-name="Ellipse 67" cx="4.726" cy="4.726" r="4.726" transform="translate(-5062.218 10763.757)" fill="#05004e"/>
    <circle id="Ellipse_68" data-name="Ellipse 68" cx="4.726" cy="4.726" r="4.726" transform="translate(-5046.871 10763.757)" fill="#05004e"/>
    <circle id="Ellipse_62" data-name="Ellipse 62" cx="4.726" cy="4.726" r="4.726" transform="translate(-5077.567 10855.846)" fill="#ffbd69"/>
    <circle id="Ellipse_63" data-name="Ellipse 63" cx="4.726" cy="4.726" r="4.726" transform="translate(-5062.218 10855.846)" fill="#ffbd69"/>
    <circle id="Ellipse_64" data-name="Ellipse 64" cx="4.726" cy="4.726" r="4.726" transform="translate(-5046.871 10855.846)" fill="#ffbd69"/>
    <circle id="Ellipse_57" data-name="Ellipse 57" cx="4.726" cy="4.726" r="4.726" transform="translate(-5077.567 10953.876)" fill="#ffbd69"/>
    <circle id="Ellipse_58" data-name="Ellipse 58" cx="4.726" cy="4.726" r="4.726" transform="translate(-5062.218 10953.876)" fill="#ffbd69"/>
    <circle id="Ellipse_59" data-name="Ellipse 59" cx="4.726" cy="4.726" r="4.726" transform="translate(-5046.871 10953.876)" fill="#ffbd69"/>
    <path id="Path_213" data-name="Path 213" d="M715.01,300.492l-24.362-15.425a3.063,3.063,0,0,0-4.7,2.615l.239,26.6a3.063,3.063,0,0,0,5.9,1.137l3.17-7.71,8.838,17.423a3.492,3.492,0,0,0,6.229-3.159l-9.039-17.82,11.584,1.95a3.063,3.063,0,0,0,2.146-5.608Z" transform="translate(-5922.378 10472.068)" fill="#da1212"/>
    <path id="Path_240" data-name="Path 240" d="M281.38,531.6a5.983,5.983,0,0,0-1.193-9.1l4.9-20.687-10.377,3.792-3.065,19.064a6.015,6.015,0,0,0,9.732,6.928Z" transform="translate(-5797.204 10406.554)" fill="#ffb8b8"/>
    <path id="Path_234" data-name="Path 234" d="M306.691,403.378l-4.165,10.709s1.785,10.709-1.19,13.089-1.785,2.38-1.785,4.165a9.152,9.152,0,0,1-3.57,6.545c-2.38,1.785-13.089,38.077-13.089,38.077H272.184a33.555,33.555,0,0,0,0-8.329c-.595-4.165,1.785-14.874,2.975-16.659s0-4.165,0-7.734,2.38-5.355,2.38-11.3,7.139-52.356,6.544-57.71,5.949-10.114,5.949-10.114h5.95Z" transform="translate(-5797.56 10448.086)" fill="#ffbd69"/>
    <path id="Path_236" data-name="Path 236" d="M109.39,569.14H117.1l3.669-29.734H109.389Z" transform="translate(-5621.991 10499.316)" fill="#ffb6b6"/>
    <path id="Path_233" data-name="Path 233" d="M286.242,723.156l12.316-.735V727.7l11.709,8.087a3.3,3.3,0,0,1-1.873,6.008H293.731l-2.527-5.219-.987,5.219h-5.528Z" transform="translate(-5801.36 10340.02)" fill="#2f2e41"/>
    <path id="Path_227" data-name="Path 227" d="M171.39,569.14H179.1l3.669-29.734H171.389Z" transform="translate(-5640.691 10499.316)" fill="#ffb6b6"/>
    <path id="Path_225" data-name="Path 225" d="M348.242,723.156l12.316-.735V727.7l11.709,8.087a3.3,3.3,0,0,1-1.873,6.008H355.731l-2.527-5.219-.987,5.219h-5.528Z" transform="translate(-5820.059 10340.02)" fill="#2f2e41"/>
    <path id="Path_221" data-name="Path 221" d="M284.872,620.47h.084l4.276-48.346a12.642,12.642,0,0,1,.166-11.946l.212-.384-.55-2.551a16.25,16.25,0,0,1,.929-9.78l-1.411-45.1c-4.941-32.023,18.607-52.906,18.607-52.906H342.46l7.573,26.02c2.843,27.7,11.735,56.841,10.558,83.7-.9,20.43-10.972,38.766-14.4,58.661l.217.109a1.83,1.83,0,0,1,.747,2.413c-.367,1.064-1.3,1.708-2.077,1.438l-18.629-.648a1.83,1.83,0,0,1-.747-2.413c.367-1.064,1.3-1.707,2.077-1.438l1.267.641,9.171-48.747.3-8.521L337.894,551l-14.728-41.388-10.809,53.472-11.04,57.92a2.031,2.031,0,0,1-1.37,3.536H284.872a2.037,2.037,0,1,1,0-4.074Z" transform="translate(-5800.801 10422.345)" fill="#05004e"/>
    <path id="Path_226" data-name="Path 226" d="M280.626,437.183c-1.158,0-1.816-.227-2.071-.714-.374-.715.275-1.648,1.026-2.73a8.35,8.35,0,0,0,1.3-2.344c.449-1.8,3.48-47.175,1.667-56.242-.419-2.1-.058-4.787,1.073-7.993,3.09-8.755,7.308-11.445,15.71-16.8q1.023-.653,2.131-1.363c.955-.614.9-2.649.846-4.8-.062-2.4-.127-4.872,1.046-6.421l.076-.1.123-.029c2.838-.656,12.384-1.874,18.038.009l.078.027.058.058c1.343,1.343,1.465,3.944,1.584,6.46.1,2.065.189,4.015.948,4.862,5.809,6.475,12.4,6.348,12.463,6.347l.326-.01.032.325c2.527,25.7,6.6,64.489,7.465,66.015a.455.455,0,0,1,.014.472C343.291,424.576,284.991,437.183,280.626,437.183ZM343.963,422.112Z" transform="translate(-5799.477 10456.37)" fill="#ffbd69"/>
    <circle id="Ellipse_72" data-name="Ellipse 72" cx="17.228" cy="17.228" r="17.228" transform="translate(-5498.14 10752.278)" fill="#ffb8b8"/>
    <path id="Path_228" data-name="Path 228" d="M260,284.061c2.913-3.4,4.3-7.9,6.626-11.761s6.381-7.309,10.662-6.412c2.951.619,5.232,3.223,6.386,6.126a30.14,30.14,0,0,1,1.573,9.241c-.071-6.446,4.175-12.694,10.025-14.751a14.764,14.764,0,0,1,16.525,5.416,8.932,8.932,0,0,1,11.863-.249,9.95,9.95,0,0,1,1.6,12.279,8.993,8.993,0,0,1-11.5,3.066l-1.358,1.25a5.889,5.889,0,0,1-3.211,6.84c-2.021.816-4.875.681-5.631,2.8-.529,1.482.459,3.064,1.51,4.2s2.3,2.315,2.425,3.891c.191,2.378-2.267,4.044-4.5,4.546a14.033,14.033,0,0,1-14.468-6.038q-.09-.138-.2-.275a20.8,20.8,0,0,1-4.184-15.9c.175-1.1,0-1.916-.759-2.176-3.274-1.125-12.447,1.236-15.223,3.369s-5,4.957-7.674,7.228-6.082,4.023-9.477,3.4a10.516,10.516,0,0,1-6.589-4.851,29.2,29.2,0,0,1-3.254-7.916A15.314,15.314,0,0,0,260,284.061Z" transform="translate(-5788.234 10477.752)" fill="#2f2e41"/>
    <path id="Path_223" data-name="Path 223" d="M373.834,531.6a5.983,5.983,0,0,1,1.193-9.1l-4.9-20.687,10.377,3.791,3.065,19.064a6.015,6.015,0,0,1-9.732,6.928Z" transform="translate(-5827.126 10406.554)" fill="#ffb8b8"/>
    <path id="Path_224" data-name="Path 224" d="M339.7,403.378l4.165,10.709s-1.785,10.709,1.19,13.089,1.785,2.38,1.785,4.165a9.152,9.152,0,0,0,3.57,6.544c2.38,1.785,13.089,38.077,13.089,38.077h10.709a33.56,33.56,0,0,1,0-8.329c.595-4.165-1.785-14.874-2.975-16.659s0-4.165,0-7.734-2.38-5.355-2.38-11.3-7.139-52.356-6.544-57.71-5.95-10.114-5.95-10.114h-5.949Z" transform="translate(-5817.952 10448.086)" fill="#ffbd69"/>
  </g>
</svg>
