<svg id="Icon_ionic-ios-finger-print" data-name="Icon ionic-ios-finger-print" xmlns="http://www.w3.org/2000/svg" width="6.475" height="6.474" viewBox="0 0 6.475 6.474">
  <path id="Path_316" data-name="Path 316" d="M28.61,9.43a2.426,2.426,0,0,0-.514-.895.211.211,0,0,0-.151-.062h0a.211.211,0,0,0-.151.062.215.215,0,0,0,0,.3,2.063,2.063,0,0,1,.417.749,3.116,3.116,0,0,1,.177.982c0,.047,0,.118,0,.157a.2.2,0,0,0,.056.153.207.207,0,0,0,.148.068H28.6a.214.214,0,0,0,.213-.2c0-.048,0-.126,0-.176A3.539,3.539,0,0,0,28.61,9.43Z" transform="translate(-22.341 -7.344)" fill="#ffbd69"/>
  <path id="Path_317" data-name="Path 317" d="M9.305,4.349a.212.212,0,0,0,.125-.04A2.786,2.786,0,0,1,11.064,3.8a2.747,2.747,0,0,1,1.77.666.221.221,0,0,0,.137.05.212.212,0,0,0,.163-.076.216.216,0,0,0-.026-.3,3.178,3.178,0,0,0-2.044-.764,3.216,3.216,0,0,0-1.883.588.213.213,0,0,0,.125.386Z" transform="translate(-7.826 -3.375)" fill="#ffbd69"/>
  <path id="Path_318" data-name="Path 318" d="M3.8,10.188a2.808,2.808,0,0,1,.693-1.848.213.213,0,0,0-.022-.3.212.212,0,0,0-.14-.053h0a.211.211,0,0,0-.16.073,3.239,3.239,0,0,0-.8,2.128,4.553,4.553,0,0,0,.24,1.4.212.212,0,0,0,.2.151.216.216,0,0,0,.062-.009.213.213,0,0,0,.126-.1.209.209,0,0,0,.016-.162A4.158,4.158,0,0,1,3.8,10.188Z" transform="translate(-3.375 -6.966)" fill="#ffbd69"/>
  <path id="Path_319" data-name="Path 319" d="M10.868,7.145a2.265,2.265,0,0,0-1.505-.563,2.541,2.541,0,0,0-1.891.78,2.35,2.35,0,0,0-.618,1.792A6.851,6.851,0,0,0,7,10.189,4.193,4.193,0,0,1,7.078,11.5a.221.221,0,0,0,.156.227.168.168,0,0,0,.056.008.216.216,0,0,0,.213-.2,4.578,4.578,0,0,0-.086-1.43A6.632,6.632,0,0,1,7.28,9.12a1.931,1.931,0,0,1,.5-1.471A2.118,2.118,0,0,1,9.363,7a1.842,1.842,0,0,1,1.225.459,2.615,2.615,0,0,1,.763,1.262,6.138,6.138,0,0,1,.142,2.249.215.215,0,0,0,.191.233l.02,0a.212.212,0,0,0,.212-.193,6.523,6.523,0,0,0-.157-2.409A3.021,3.021,0,0,0,10.868,7.145Z" transform="translate(-6.078 -5.871)" fill="#ffbd69"/>
  <path id="Path_320" data-name="Path 320" d="M16.44,12a2.615,2.615,0,0,0-.632-1.41,1.616,1.616,0,0,0-1.2-.525,1.949,1.949,0,0,0-.842.187.215.215,0,0,0-.115.142.213.213,0,0,0,.207.263.232.232,0,0,0,.092-.02,1.537,1.537,0,0,1,.657-.143,1.2,1.2,0,0,1,.907.414,2.229,2.229,0,0,1,.5,1.161,7.672,7.672,0,0,1,.111,1.138,8.43,8.43,0,0,1-.075,1.138.208.208,0,0,0,.039.159.213.213,0,0,0,.139.086.232.232,0,0,0,.033,0,.211.211,0,0,0,.21-.181,8.444,8.444,0,0,0,.081-1.206A7.823,7.823,0,0,0,16.44,12Z" transform="translate(-11.374 -8.587)" fill="#ffbd69"/>
  <path id="Path_321" data-name="Path 321" d="M10.891,13.137a.213.213,0,0,0-.176-.333.215.215,0,0,0-.176.092,1.659,1.659,0,0,0-.224,1.242,8.625,8.625,0,0,1,.146,2.568.221.221,0,0,0,.045.167.2.2,0,0,0,.146.079l.019,0a.213.213,0,0,0,.21-.184,8.932,8.932,0,0,0-.148-2.705A1.223,1.223,0,0,1,10.891,13.137Z" transform="translate(-8.754 -10.717)" fill="#ffbd69"/>
  <path id="Path_322" data-name="Path 322" d="M21.418,27.281H21.41a.213.213,0,0,0-.205.221,2.806,2.806,0,0,1-.04.54.215.215,0,0,0,.142.246.241.241,0,0,0,.067.011.212.212,0,0,0,.209-.173,3.3,3.3,0,0,0,.048-.64A.21.21,0,0,0,21.418,27.281Z" transform="translate(-17.223 -21.989)" fill="#ffbd69"/>
  <path id="Path_323" data-name="Path 323" d="M15.182,13.6a.907.907,0,0,0-.63-.251.935.935,0,0,0-.741.319,1.079,1.079,0,0,0-.17.934,8.575,8.575,0,0,1,.126,2.733.213.213,0,0,0,.184.238.16.16,0,0,0,.026,0,.213.213,0,0,0,.212-.187,9.018,9.018,0,0,0-.129-2.87.7.7,0,0,1,.079-.581.517.517,0,0,1,.411-.163c.389,0,.546.43.6.613a7.258,7.258,0,0,1,.179,1.676.214.214,0,0,0,.213.21h0a.213.213,0,0,0,.21-.215,7.7,7.7,0,0,0-.195-1.781A1.413,1.413,0,0,0,15.182,13.6Z" transform="translate(-11.344 -11.138)" fill="#ffbd69"/>
  <path id="Path_324" data-name="Path 324" d="M17.2,16.824a.214.214,0,0,0-.2-.132h0a.234.234,0,0,0-.081.016.213.213,0,0,0-.115.279,4.634,4.634,0,0,1,.219,1.289A10.105,10.105,0,0,1,17,19.981a.214.214,0,0,0,.045.157.207.207,0,0,0,.143.078.118.118,0,0,0,.023,0,.213.213,0,0,0,.212-.19,10.618,10.618,0,0,0,.031-1.8A4.816,4.816,0,0,0,17.2,16.824Z" transform="translate(-13.823 -13.744)" fill="#ffbd69"/>
</svg>
