<svg xmlns="http://www.w3.org/2000/svg" width="41.238" height="32.988" viewBox="0 0 41.238 32.988">
  <path id="Icon_awesome-hands-helping" data-name="Icon awesome-hands-helping" d="M31.444,12.372H21.65V15.98a4.639,4.639,0,1,1-9.279,0V8.145L8.189,10.658a4.115,4.115,0,0,0-2,3.531v3.048L1.031,20.213a2.057,2.057,0,0,0-.754,2.816L5.432,31.96a2.063,2.063,0,0,0,2.816.754l6.663-3.847h8.8a4.128,4.128,0,0,0,4.124-4.124h1.031a2.06,2.06,0,0,0,2.062-2.062V18.557h.515a1.543,1.543,0,0,0,1.546-1.546V13.918A1.543,1.543,0,0,0,31.444,12.372Zm9.517-2.41L35.806,1.031A2.063,2.063,0,0,0,32.99.277L26.328,4.124H19.743a4.155,4.155,0,0,0-2.184.625L15.4,6.1a2.048,2.048,0,0,0-.967,1.746V15.98a2.577,2.577,0,1,0,5.155,0V10.31H31.444a3.611,3.611,0,0,1,3.608,3.608v1.836l5.155-2.977a2.064,2.064,0,0,0,.754-2.816Z" transform="translate(0.002 -0.001)" fill="#ffbd69"/>
</svg>
