<svg xmlns="http://www.w3.org/2000/svg" width="603" height="726" viewBox="0 0 603 726">
  <g id="Group_61" data-name="Group 61" transform="translate(11733 -1516)">
    <text id="Premium_Priority_Client" data-name="Premium Priority Client" transform="translate(-11733 2228)" fill="#ffbd69" font-size="57" font-family="SegoeUI-Semibold, Segoe UI" font-weight="600"><tspan x="0" y="0">Premium Priority Client</tspan></text>
    <g id="Group_48" data-name="Group 48" transform="translate(-11723 1516)">
      <path id="Path_429" data-name="Path 429" d="M303.293,487.864l-19.029-1.046,2.621,58.388,12.894.709Z"/>
      <path id="Path_430" data-name="Path 430" d="M285.2,526.746l6.613,3v4s1.584-4.638,10.138-5.668l1.03,3.881s3.326,3.8,2.772,10.692l-2.138,18.453-6.453-.135-1.07-12.836s-1.784-2.909-9.941,10.951c0,0-3.007,4.582-16.983-.071a4.684,4.684,0,0,1-3.237-4.453,2.378,2.378,0,0,1,1.846-2.524c3.564-.95,7.049.238,9.346-2.614s8.078-22.681,8.078-22.681Z"/>
    </g>
    <g id="Group_49" data-name="Group 49" transform="translate(-11723 1516)">
      <path id="Path_431" data-name="Path 431" d="M255.655,541.439l-19.029-1.046,2.62,58.388,12.9.71Z"/>
      <path id="Path_432" data-name="Path 432" d="M237.558,580.322l6.613,3v4s1.584-4.638,10.138-5.668l1.03,3.881s3.326,3.8,2.772,10.692l-2.138,18.453-6.453-.135-1.07-12.836s-1.784-2.909-9.941,10.951c0,0-3.007,4.582-16.983-.071a4.684,4.684,0,0,1-3.237-4.453,2.378,2.378,0,0,1,1.846-2.524c3.564-.95,7.049.238,9.346-2.614s8.078-22.681,8.078-22.681h0Z"/>
    </g>
    <g id="Group_50" data-name="Group 50" transform="translate(-11723 1516)">
      <path id="Path_433" data-name="Path 433" d="M494.453,366.964c-.844-1.424-4.5.1-5.168-1.191s2.724-3.249,4.663-7.73c.35-.808,2.553-5.9.922-7.472-3.092-2.978-17.24,9.313-22.191,5.29-1.087-.883-1.846-2.645-5.134-5.506-1.308-1.138-2.1-1.652-2.865-1.461-1.086.271-1.172,1.725-2.337,4.584-1.747,4.287-2.78,4.028-3.8,7.449-.756,2.539-.583,4.016-1.472,4.3-1.258.407-2.416-2.286-4.011-2.045-1.627.246-2.611,3.382-2.922,5.73-.583,4.406,1.035,7.313,1.932,10.371.975,3.322,1.553,8.375-.7,15.528L429.1,457.58c4.918-12.879,19.158-48.185,25.142-61.305,1.727-3.787,3.635-7.629,7.551-9.145,3.77-1.46,8.949-.588,15.55-2.179.771-.186,2.911-.73,3.18-1.988.223-1.04-1.036-1.621-.842-2.6.259-1.307,2.734-1.323,5.775-2.831a18,18,0,0,0,4.629-3.415c.346-.328,5.5-5.262,4.371-7.157h0Z" fill="#f2f2f2"/>
      <path id="Path_434" data-name="Path 434" d="M406.808,400.006c-.942,0-1.248,2.236-2.076,2.193s-.808-2.275-2.448-4.519c-.3-.4-2.159-2.955-3.4-2.608-2.354.658-.4,11.148-3.806,12.418a37.653,37.653,0,0,0-4.184.931c-.936.314-1.417.554-1.544.985-.18.611.508,1.073,1.575,2.47,1.6,2.094,1.175,2.527,2.56,4.013,1.028,1.1,1.8,1.445,1.687,1.964-.163.735-1.819.526-2.161,1.379-.349.87.907,2.257,1.969,3.087,1.994,1.557,3.888,1.6,5.647,2.044a14.83,14.83,0,0,1,7.42,4.823l24.378,29.044c-4.9-6.13-18.122-23.306-22.835-30.029-1.361-1.941-2.7-3.985-2.31-6.345.371-2.272,2.293-4.562,3.417-8.261.131-.432.481-1.639-.058-2.134-.446-.409-1.095.041-1.517-.335-.567-.5.14-1.724.277-3.651a10.247,10.247,0,0,0-.341-3.258c-.061-.265-1-4.215-2.251-4.21h0Z" fill="#f2f2f2"/>
      <path id="Path_435" data-name="Path 435" d="M425.607,404.226l-.568-5.068.259-.384a9.377,9.377,0,0,0,1.819-5.159c0-.262-.011-.524-.023-.79a7.928,7.928,0,0,1,.575-3.9c.384-.854,1.463-2.831,3.086-2.587a1.838,1.838,0,0,1,1.018.5l.115-.181a5.576,5.576,0,0,1,1.291-1.419,6.519,6.519,0,0,0,1.082-1.094c.21-.262.374-.492.513-.685a2.38,2.38,0,0,1,1.935-1.27,2.54,2.54,0,0,1,1.932,1.468,12.215,12.215,0,0,1,1.122,2.217,3.834,3.834,0,0,0,.19.436c.333.489,3.038.032,4.057-.135,2.289-.382,4.27-.712,5.087.732.585,1.033.151,2.4-1.33,4.168a8.275,8.275,0,0,1-1.388,1.3,1.7,1.7,0,0,1,.815,1.065h0c.308,1.228-.748,2.459-3.137,3.663a8.436,8.436,0,0,1-2.512.9,9.868,9.868,0,0,1-1.408.125,1.668,1.668,0,0,1-.207.751,2.507,2.507,0,0,1-2.61,1.05,20.463,20.463,0,0,1-3.694-.595,8.959,8.959,0,0,0-2.332-.348c-1.153.093-2.041,1.016-3.083,2.212l-2.6,3.042Z" fill="#f2f2f2"/>
      <path id="Path_436" data-name="Path 436" d="M428.241,374.05l-4.758,1.835-.437-.153a9.377,9.377,0,0,0-5.452-.451c-.254.065-.5.143-.759.223a7.928,7.928,0,0,1-3.922.434c-.924-.155-3.11-.7-3.285-2.329a1.838,1.838,0,0,1,.222-1.111l-.2-.065a5.576,5.576,0,0,1-1.7-.889,6.52,6.52,0,0,0-1.332-.769c-.307-.137-.571-.237-.793-.322A2.38,2.38,0,0,1,404.1,368.9a2.54,2.54,0,0,1,.93-2.241,12.216,12.216,0,0,1,1.86-1.648,3.834,3.834,0,0,0,.373-.294c.389-.446-.74-2.947-1.159-3.891-.95-2.118-1.772-3.95-.582-5.106.851-.828,2.282-.754,4.369.229a8.275,8.275,0,0,1,1.607,1.013,1.7,1.7,0,0,1,.823-1.058h0c1.11-.61,2.569.1,4.339,2.105a8.436,8.436,0,0,1,1.5,2.2,9.87,9.87,0,0,1,.478,1.331,1.668,1.668,0,0,1,.779.009c.852.21,1.429.962,1.678,2.258a20.463,20.463,0,0,1,.362,3.724,8.957,8.957,0,0,0,.255,2.344c.382,1.091,1.5,1.717,2.922,2.421l3.6,1.746Z" fill="#f2f2f2"/>
      <path id="Path_437" data-name="Path 437" d="M425.607,359.119l-.568-5.068.259-.384a9.377,9.377,0,0,0,1.819-5.159c0-.262-.011-.524-.023-.79a7.928,7.928,0,0,1,.575-3.9c.384-.854,1.463-2.831,3.086-2.587a1.838,1.838,0,0,1,1.018.5l.115-.181a5.576,5.576,0,0,1,1.291-1.419,6.519,6.519,0,0,0,1.082-1.094c.21-.262.374-.492.513-.685a2.38,2.38,0,0,1,1.935-1.27,2.54,2.54,0,0,1,1.932,1.468,12.215,12.215,0,0,1,1.122,2.217,3.834,3.834,0,0,0,.19.436c.333.489,3.038.032,4.057-.135,2.289-.382,4.27-.712,5.087.732.585,1.033.151,2.4-1.33,4.168a8.275,8.275,0,0,1-1.388,1.3,1.7,1.7,0,0,1,.815,1.065h0c.308,1.228-.748,2.459-3.137,3.663a8.436,8.436,0,0,1-2.512.9,9.868,9.868,0,0,1-1.408.125,1.668,1.668,0,0,1-.207.751,2.507,2.507,0,0,1-2.61,1.05,20.463,20.463,0,0,1-3.694-.595,8.959,8.959,0,0,0-2.332-.348c-1.153.093-2.041,1.016-3.083,2.212l-2.6,3.042Z" fill="#f2f2f2"/>
      <path id="Path_438" data-name="Path 438" d="M430.793,457.5l-1.062-.666-.257-1.226.257,1.226-1.238.142c-.02-.115-.087-.379-.188-.793a177.232,177.232,0,0,1-3.654-20.023,204.15,204.15,0,0,1-1.656-23.17c-.115-7.807.255-13.717.551-18.467.224-3.583.5-6.994.762-10.317.71-8.878,1.379-17.265.881-26.55a24.6,24.6,0,0,0-2.862-10.978,23.312,23.312,0,0,0-5.987-7.023l1.561-1.963a25.858,25.858,0,0,1,6.623,7.782,26.94,26.94,0,0,1,3.168,12.05c.507,9.449-.17,17.916-.887,26.88-.264,3.311-.536,6.708-.759,10.276-.294,4.706-.66,10.565-.546,18.271a201.652,201.652,0,0,0,1.634,22.886,174.432,174.432,0,0,0,3.6,19.749c.291,1.192.352,1.441.054,1.914h0Z" fill="#f2f2f2"/>
      <path id="Path_439" data-name="Path 439" d="M411.744,343.634c-.1,0-.207,0-.312-.01-2.134-.115-4.11-1.392-5.875-3.8-.827-1.131-1.251-2.42-2.095-4.992a31.3,31.3,0,0,1-1.154-5.176c-.253-1.809-.221-2.565.137-3.233a3.824,3.824,0,0,1,1.766-1.613,1.416,1.416,0,0,1,.1-.739c.427-1.045,1.563-.908,2.177-.842a6.154,6.154,0,0,0,1.117.069,3.149,3.149,0,0,0,1.548-.521,6.969,6.969,0,0,1,2.1-.825,7.472,7.472,0,0,1,3.942.313c2.71.9,4.046,3.01,5.593,5.45a19.135,19.135,0,0,1,2.065,4.713,5.6,5.6,0,0,1,.281,3.128c-.308,1.2-1.036,1.882-2.885,3.394a33.608,33.608,0,0,1-3.732,2.858c-1.937,1.118-3.153,1.821-4.768,1.821Z" fill="#f2f2f2"/>
    </g>
    <g id="Group_51" data-name="Group 51" transform="translate(-11723 1516)">
      <path id="Path_440" data-name="Path 440" d="M146.014,451.571h11.859l5.641-45.743h-17.5Z"/>
      <path id="Path_441" data-name="Path 441" d="M186.644,451.3h0a10.182,10.182,0,0,1,.564,3.352h0a4.025,4.025,0,0,1-4.025,4.025H146.457a2.746,2.746,0,0,1-2.746-2.746V454.4s-1.817-4.6,1.924-10.26c0,0,4.649,4.435,11.6-2.512l2.049-3.711,14.829,10.845,8.219,1.012c1.8.221,3.392-.034,4.317,1.523h0Z"/>
    </g>
    <g id="Group_52" data-name="Group 52" transform="translate(-11723 1516)">
      <path id="Path_442" data-name="Path 442" d="M101.014,451.571h11.859l5.641-45.743h-17.5Z"/>
      <path id="Path_443" data-name="Path 443" d="M141.644,451.3h0a10.182,10.182,0,0,1,.564,3.352h0a4.025,4.025,0,0,1-4.025,4.025H101.457a2.746,2.746,0,0,1-2.746-2.746V454.4s-1.817-4.6,1.924-10.26c0,0,4.649,4.435,11.6-2.512l2.049-3.711,14.828,10.845,8.219,1.012c1.8.221,3.392-.034,4.317,1.523h0Z"/>
    </g>
    <path id="Path_444" data-name="Path 444" d="M92.28,205.856l-15,34,19,186,23.5,1.5,9.5-164.5,9,165,28-3L172.922,215.4Z" transform="translate(-11723 1516)" fill="#696969"/>
    <path id="Path_445" data-name="Path 445" d="M151.378,70.355l-30.1-5.5L115.2,70.934,84.28,83.856l5,97s-10,6.661-5,15.831,4,20.169,4,20.169h84.642l-3.642-55,10-70L155.913,80.793l-4.535-10.437h0Z" transform="translate(-11723 1516)" fill="#eee"/>
    <path id="b" d="M129.563,183.364c8.551,2.041,16.536-.716,17.834-6.158s-4.581-11.507-13.135-13.548a22,22,0,0,0-10.39-.1l-36.34-8.191L84.05,172.5l36.194,6.256a22,22,0,0,0,9.318,4.605h0Z" transform="translate(-11723 1516)" fill="#ffb6b6"/>
    <path id="Path_446" data-name="Path 446" d="M90.28,88.855l-6-5s-12,6-14,11-14,53-14,53-2.354,26.306,3.823,29.653,45.177,1.347,45.177,1.347l3-20-16-6-2-64Z" transform="translate(-11723 1516)" fill="#eee"/>
    <circle id="Ellipse_107" data-name="Ellipse 107" cx="26.433" cy="26.433" r="26.433" transform="translate(-11611.214 1525.151)" fill="#ffb6b6"/>
    <path id="Path_447" data-name="Path 447" d="M119.26,59.05c-3.167.283-8.336-7.818-8.106-15.663.148-5.047-4.234-6.039-4.559-12.548-.19-3.793,5.636-4.975,6.036-8.017a17.992,17.992,0,0,1,4.725-9.671c3.832-3.892,6.537-2.627,11.043-7.137,2.713-2.716,2.018-3.46,3.845-4.664,5.274-3.476,14.749.291,20.416,5.367,1.961,1.756,9.27-.163,12.463,4.8,3.762,5.843,2.888,17.759,1.275,19.332-.98.955-3.218-1.379-9.284-2.877-5.616-1.387-.318,5.472-6.811,4.321-7.677-1.361-9.181-3.7-12.056-2.3-3.039,1.481-5.414,6.067-4.725,9.671.342,1.789,1.334,2.786.775,3.7-1.021,1.661-2.193.032-3.5,1.7-1.523,1.938,2.262,6.911,1.549,7.392-.144.1-.578.084-4.664-3.845-1.631-1.569-2.11-2.532-2.429-2.385-.517.239-3.9,3.394-2.61,5.886,2.012,3.877-.563,4,0,6.608.581,2.693-1.369.156-3.382.336h0Z" transform="translate(-11723 1516)" fill="#2f2e41"/>
    <path id="Path_448" data-name="Path 448" d="M113.78,139.356l-4,3,21,29,4-1Z" transform="translate(-11723 1516)" fill="#3f3d56"/>
    <path id="Path_449" data-name="Path 449" d="M167.78,165.9v50.614a8.126,8.126,0,0,1-8.117,8.117H109.048a8.126,8.126,0,0,1-8.117-8.117V165.9a8.126,8.126,0,0,1,8.117-8.117h50.614A8.126,8.126,0,0,1,167.78,165.9Z" transform="translate(-11723 1516)" fill="#fff"/>
    <g id="Group_53" data-name="Group 53" transform="translate(-11723 1516)">
      <path id="Path_450" data-name="Path 450" d="M141.093,178.457h-16.34a.747.747,0,1,1,0-1.494h16.34a.747.747,0,0,1,0,1.494Z" fill="#da1212"/>
      <path id="Path_451" data-name="Path 451" d="M141.093,194.387h-16.34a.747.747,0,1,1,0-1.494h16.34a.747.747,0,0,1,0,1.494Z" fill="#da1212"/>
      <path id="Path_452" data-name="Path 452" d="M132.975,216.352h-16.34a.747.747,0,1,1,0-1.494h16.34a.747.747,0,0,1,0,1.494Z" fill="#da1212"/>
      <path id="Path_453" data-name="Path 453" d="M149.861,186.427H115.984a.747.747,0,1,1,0-1.494h33.877a.747.747,0,0,1,0,1.494Z" fill="#da1212"/>
    </g>
    <path id="c" d="M147.359,187.479c-7.794,4.068-12.012,11.386-9.422,16.346s11.005,5.681,18.8,1.611a22,22,0,0,0,7.908-6.74l32.8-17.652-8.612-15.217-31.424,19.018a22,22,0,0,0-10.054,2.636Z" transform="translate(-11723 1516)" fill="#ffb6b6"/>
    <path id="Path_454" data-name="Path 454" d="M173.28,92.855s9-6,15,10c4.734,12.623,13.512,49.83,17.008,64.975a11.27,11.27,0,0,1-3.5,10.962l-4.009,3.564-19.5,14.5-13.3-19.347,16.148-9.736-18.415-39.949L173.28,92.855h0Z" transform="translate(-11723 1516)" fill="#eee"/>
    <path id="Path_455" data-name="Path 455" d="M583.04,458.358h0a.84.84,0,0,1-.84.84H0v-1.68H582.2a.84.84,0,0,1,.84.84Z" transform="translate(-11723 1516)" fill="#e6e6e6"/>
    <path id="d" d="M267.575,453.8a13.275,13.275,0,0,0-.867-6.211L270,425.675l-10.473-1.262-2.213,22.366a13.274,13.274,0,0,0-1.917,5.969c-.456,5.286,1.9,9.8,5.262,10.1s6.459-3.758,6.914-9.042h0Z" transform="translate(-11723 1516)" fill="#a0616a"/>
    <path id="Path_456" data-name="Path 456" d="M297.887,324.332l-8.644,45.413-10.72,23.823-6.385,45.937-16.405,4.964,5.145-58.249s16.569-54.122,21.012-59.633,16-2.256,16-2.256h0Z" transform="translate(-11723 1516)" fill="#ffbd69"/>
    <g id="Group_55" data-name="Group 55" transform="translate(-11723 1516)">
      <rect id="Rectangle_177" data-name="Rectangle 177" width="35.514" height="37.451" transform="translate(295.805 314.926) rotate(-72.957)" fill="#2f2e41"/>
      <circle id="Ellipse_108" data-name="Ellipse 108" cx="18.26" cy="18.26" r="18.26" transform="translate(306.282 268.156)" fill="#a0616a"/>
      <path id="Path_457" data-name="Path 457" d="M341.463,260.711c-5.622-2.723-16.256-1.446-20.058-1.027-3.4.375-5.751,2.344-8.066,4.281a29.248,29.248,0,0,0-8.3,11.64c-3.476,8.921-.053,12.673-3.686,16.43-3.892,4.025-9.35,1.3-11.72,5.187-2.154,3.532,1.84,6.617.3,12.248-1.78,6.5-8.614,7.926-7.917,10.4.774,2.751,10.011,3.908,17.376.6.993-.446,9.725-4.5,10.148-11.072.271-4.215-3.186-4.65-4.141-10.725-.664-4.223.409-7.81,2.122-13.532,1.194-3.987,1.79-5.981,3.078-7.836.621-.9,6.467-9.036,15.136-7.517,7.642,1.339,12.779,9.362,11.789,14.42-.585,2.987-3.364,5.237-2.271,7.408.806,1.6,2.877,1.489,3.136,2.988.243,1.407-1.35,2.848-2.559,3.943a15.907,15.907,0,0,1-3.416,2.33c-3.677,2.049-5.04,8.164-5.02,11.969.031,5.679,3.179,12.665,9.558,15.086,7.164,2.72,15.9-1.266,16.231-4.479.192-1.866-2.556-2.45-3-5.646-.5-3.605,2.656-5.362,1.654-7.6-.908-2.025.415.865-2.091-1.992a7.744,7.744,0,0,1-1.951-4.65c-.037-3.122,2.643-5.182,4.123-6.84,5.539-6.207,6.413-17.918,1.28-23.64-2.913-3.248-1.11-7.231-11.739-12.378h0Z" fill="#2f2e41"/>
      <path id="Path_458" data-name="Path 458" d="M344.14,278.415c1.651-3.743-2.716-8.505-3.285-9.111-4.26-4.535-10.378-4.7-13.392-4.781-2.639-.071-8.3-.223-12.577,3.574-2.315,2.053-4.475,5.482-3.506,7.03.593.947,2.31.993,5.745,1.086,3.089.083,4.207-.324,5.935.469,1.276.585,1.591,1.231,2.708,2.181a14.416,14.416,0,0,0,7.836,3.078c2.6.274,8.911.16,10.535-3.524h0Z" fill="#2f2e41"/>
    </g>
    <path id="Path_459" data-name="Path 459" d="M300.559,320.313l-15.485,4.764,1.191,14.294L281.5,427.515l79.806,2.383,1.019-8.2-8.166-29.542,3.574-58.737L335.1,321.5l-5.956-11.912-21.44-1.191Z" transform="translate(-11723 1516)" fill="#ffbd69"/>
    <path id="Path_460" data-name="Path 460" d="M335.7,412.626,280.905,429.3s-33.093,9.469-50.96,19S214.2,466.477,214.2,466.477l22.632,101.247,21.441,1.191-2.908-93.134,23.157-3.157,3.573,34.1,19.058,4.765,19.058-65.513h0a15.5,15.5,0,0,0,17.232,12.836,205.013,205.013,0,0,0,23.267-4.2c17.867-4.464,0-36.034,0-36.034L335.7,412.626Z" transform="translate(-11723 1516)" fill="#696969"/>
    <path id="Path_461" data-name="Path 461" d="M279.118,463.25s3.573-28.587,9.529-60.748,27.4-23.823,27.4-23.823l38.117,40.5-30.97,20.25L279.118,463.25Z" transform="translate(-11723 1516)" fill="#2f2e41"/>
    <path id="e" d="M311.446,432.364a13.275,13.275,0,0,0,3.5-5.206l17.067-14.135-6.963-7.924L308.483,420.29a13.274,13.274,0,0,0-5.409,3.17c-3.865,3.635-5.122,8.574-2.81,11.033s7.319,1.506,11.182-2.128h0Z" transform="translate(-11723 1516)" fill="#a0616a"/>
    <path id="Path_462" data-name="Path 462" d="M325.62,353.655l13.632,26.555-23.4,30.18,11.78,12.332,29.283-24.69L370.648,385.1c4.982-4.692,2.39-10.878-.079-17.261-9.857-25.486-7.475-35.015-17-37.4-7.752-1.938-27.945,23.218-27.945,23.218Z" transform="translate(-11723 1516)" fill="#ffbd69"/>
    <g id="Group_56" data-name="Group 56" transform="translate(-11723 1516)">
      <path id="Path_463" data-name="Path 463" d="M263.174,403.638l2.229-6.24,41.448,7.131L342.059,386.7l1.783,4.9-38.328,22.73Z" fill="#e6e6e6"/>
      <path id="Path_464" data-name="Path 464" d="M345.625,388.484,305.959,408.54l-45.336-6.551,4.334,19.03,38.328,6.685,36.236-17.363Z" fill="#3f3d56"/>
    </g>
    <path id="Path_465" data-name="Path 465" d="M104.611,172.3l2.229-6.239,41.448,7.131L183.5,155.367l1.783,4.9L146.951,183Z" transform="translate(-11723 1516)" fill="#e6e6e6"/>
    <path id="Path_466" data-name="Path 466" d="M187.062,157.15,147.4,177.206l-45.336-6.552,4.334,19.031,38.328,6.685,36.236-17.363Z" transform="translate(-11723 1516)" fill="#3f3d56"/>
  </g>
</svg>
