<svg xmlns="http://www.w3.org/2000/svg" width="50.342" height="50.342" viewBox="0 0 1695 1695">
  <g id="Group_215" data-name="Group 215" transform="translate(23754.467 20856.652)">
    <circle id="Ellipse_245" data-name="Ellipse 245" cx="822.5" cy="822.5" r="822.5" transform="translate(-23729.467 -20831.652)" fill="#da1212"/>
    <g id="Group_213" data-name="Group 213" transform="translate(-23553.412 -19795.648)" opacity="0.3">
      <path id="Path_472" data-name="Path 472" d="M97.333,206.852c1.649-4.373,2.981-8.606,4.812-12.611,3.4-7.434,6.918-14.823,10.691-22.072A181.993,181.993,0,0,0,128.662,127.2c1.012-4.558,1.584-4.864,5.613-2.969,2.095.985,4.047,2.36,6.224,3.06,2.157.693,4.516.758,7.832,1.255-1.927,6.648-3.115,13.39-5.839,19.441-3.1,6.893-7.359,13.31-11.52,19.668-3.555,5.431-7.843,10.4-9.7,18.234,7.268-1.381,13.813-2.331,20.2-3.9,12.268-3.015,24.356-6.838,36.71-9.4,5.706-1.185,11.861-.2,17.812-.2-.085,4.839-3.606,9.281-9.335,10.446a175.625,175.625,0,0,1-19.815,2.5c-5.363.465-5.542.246-5.291,5.486,1.134,23.715-3.531,46.306-12.6,68.152-.861,2.074-.445,5.159.407,7.38,3.676,9.584,10.63,16.321,19.6,21.073,15.88,8.416,32.846,13.828,50.222,18.1,2.247.553,4.47,1.2,6.691,1.859.355.1.636.461,1.144.848a13.365,13.365,0,0,1-9.6,8.047A124.9,124.9,0,0,1,197.8,319.9a239.321,239.321,0,0,1-24.513.526,8.261,8.261,0,0,1-5.574-2.6q-13.831-16.662-27.164-33.734c-2.047-2.632-3.47-3.6-6.516-1.577-4.535,3.009-9.343,5.606-14.022,8.4a124.4,124.4,0,0,1-46.787,16.206,24.117,24.117,0,0,1-2.855.188c-.531.012-1.064-.1-2.9-.283,2.337-1.383,3.737-2.252,5.173-3.055,10.821-6.056,21.668-12.066,32.468-18.158a49.7,49.7,0,0,0,17.963-16.359,7.75,7.75,0,0,0,.762-6.286,41.589,41.589,0,0,0-6.7-10.569c-3.985-4.451-8.623-8.318-12.98-12.437a35.526,35.526,0,0,1-3.814-3.688c-1.912-2.452-5.678-4.7-3.5-8.294,2.152-3.554,6.622-3.012,9.649-1.818a24.713,24.713,0,0,1,9.7,6.967c3.413,4.158,5.776,9.184,8.539,13.867,3.694,6.259,6.019,6.479,10.517.846,4.749-5.947,5.875-13.187,6.423-20.361.737-9.639.656-19.339,1.056-29.008.1-2.387-.827-3.274-3.074-3.854-14.619-3.77-26.707,1.829-38.137,10.033-.884.634-1.708,1.351-2.594,1.982C98.756,206.956,98.427,206.852,97.333,206.852Z" transform="translate(-10.146 -123.132)" fill="#05004e"/>
      <path id="Path_473" data-name="Path 473" d="M19.781,310.285a71.7,71.7,0,0,1-2.618-25.2C18.184,270.4,19.778,255.7,19.7,241.019c-.065-11.9-2.235-23.788-3.475-35.683-.067-.645-.159-1.288-.2-1.582,6.191,1.128,12.208,2.825,18.309,3.228,22.224,1.467,33.4-13.834,35.407-31.565a58.692,58.692,0,0,0-.268-13.034c-.517-4.6-1.675-5.251-6.246-4.11-4.749,1.186-9.421,2.678-14.127,4.038-7.834,2.264-15.576,4.973-23.539,6.608-4.06.833-8.516-.263-12.793-.487l-.051-1.217c3.864-1.385,7.724-2.781,11.593-4.152,14.612-5.179,29.123-10.674,43.881-15.4,8.029-2.568,16.444-1.657,24.69.092,2.4.508,3.4,1.632,2.659,3.94-1.565,4.9-2.947,9.89-4.952,14.609-2.072,4.876-4.924,9.413-7.2,14.209-4.131,8.7-5.193,17.7-2.113,27a19.151,19.151,0,0,1,.541,2.644c-7.1.455-14.1.188-20.8,1.475-16.169,3.105-24.4,14.147-27.664,29.623-2.858,13.576-1.543,27.089.369,41.5a42.927,42.927,0,0,0,6.452-2.335c9.4-5.249,18.514-11.031,28.107-15.878,6.831-3.451,14.261-5.718,21.423-8.514l.938,1.42c-1,1.274-1.923,2.612-3,3.812-12.325,13.689-27.01,24.542-42.188,34.75-6.536,4.4-13.391,8.325-20.178,12.335C23.8,309.22,22,309.525,19.781,310.285Z" transform="translate(-12.721 -122.053)" fill="#05004e"/>
    </g>
    <g id="Group_212" data-name="Group 212" transform="translate(-22475.682 -20487.113)" opacity="0.3">
      <path id="Path_471" data-name="Path 471" d="M483.324,252.312c-8.395.922-15.762,1.769-23.137,2.535-22.773,2.365-45.542,4.779-68.327,7.026-37.458,3.694-74.961,6.77-112.639,6.668-5.56-.015-11.118-.978-16.672-1.547a8.251,8.251,0,0,1-1.847-.649l-.2-1.267c5.811-1.286,11.563-3.157,17.443-3.741,14.235-1.413,28.542-2.081,42.795-3.331,10.548-.925,10.971-2.171,6.728-12-2.467-5.712-4.127-11.769-6.39-17.577-.5-1.28-1.894-2.911-3.083-3.1-5.878-.952-11.828-1.46-17.749-2.155a57.919,57.919,0,0,1-9.737-1.779c4.586-5.19,10.425-7.127,16.541-7.576q22.413-1.645,44.886-2.409c3.937-.134,5.521-1.461,5.313-5.114a103.753,103.753,0,0,0-1.209-12.983c-.223-1.2-2.429-2.8-3.82-2.9-6.483-.459-13-.541-19.5-.59-4.356-.033-8.717.371-13.067.258-1.681-.044-3.911-.493-4.864-1.624a9.959,9.959,0,0,1-1.9-5.769c-.025-.634,2.443-1.931,3.788-1.957,7.494-.147,14.995.074,22.492.022a71.981,71.981,0,0,0,10.177-.649c5.824-.876,8.205-3.778,8.5-9.71.249-5.066-2.055-8.748-7.449-9.647-6.541-1.09-13.251-1.167-19.888-1.684-3.929-.306-7.942-.217-11.766-1.024-4.54-.958-6.03-3.449-5.731-8.555,6.725,0,13.574.648,20.259-.125,17.991-2.08,35.878-5.068,53.874-7.1,10.655-1.2,21.439-1.271,32.165-1.849l.643,1.156a35.094,35.094,0,0,1-3.09,4.3c-5.089,5.263-11.577,7.66-18.687,8.175-6.511.472-13.063.558-19.594.5-2.176-.019-3.526.229-3.483,2.613.073,4.034.078,8.081.444,12.093.376,4.12,3.092,5.428,6.919,4.821,6.99-1.109,13.968-2.293,20.963-3.369,4.2-.646,8.363-.8,12.346,1.844-2.473,6.338-7.656,9-13.551,10.033-7.5,1.309-15.118,1.888-22.689,2.762-1.187.137-2.386.169-2.784.2-1.8,5.2-3.293,9.934-5.107,14.544-1.107,2.812-.175,4.227,2.3,5.488,6.651,3.386,13.475,2.445,20.4,1.282,10.189-1.711,20.373-3.56,30.629-4.73,6.633-.757,12.152,1.355,17.5,5.19-1.707,3.968-5.239,5.279-9.034,5.785-5.53.737-11.139.891-16.662,1.669-6.043.85-6.473,1.433-5.319,7.279,1.56,7.9-1.827,14.376-5.422,20.851-.85,1.531-1.869,2.97-3.638,5.755,6.715,0,12.469.477,18.114-.1,10.292-1.06,20.483-3.153,30.783-4.062C462.3,243.517,472.94,245.219,483.324,252.312Zm-150.6-28.148-.5,1.372c10.053,5.934,11.392,15.441,11.254,25.6a29.648,29.648,0,0,0,.771,4.879c14.629-5.022,29.345-4.178,43.72-4.009,1.387-6.056,2.867-11.565,3.861-17.16.777-4.374.974-8.852,1.384-13.288.326-3.526-1.269-4.836-4.812-4.5-12.054,1.126-24.153,1.838-36.175,3.225C345.661,221.038,339.219,222.836,332.722,224.164Z" transform="translate(-260.503 -100.021)" fill="#05004e"/>
      <path id="Path_474" data-name="Path 474" d="M323.19,331.348c-1.937-11.527-4.195-22.464-5.485-33.513-.863-7.388-3.686-13.259-9.2-18.028-.5-.429-.89-.976-1.906-2.109,5.737-.869,10.873-1.69,16.022-2.42,23.35-3.31,46.67-7.145,70.378-6.143,10.523.445,20.84,2.192,30.611,6.531,3.728,1.656,4.7,4.37,2.968,7.466-2.083,3.719-4.49,7.6-7.7,10.274-6.746,5.624-11.227,11.909-9.7,21.085.485,2.921-1.318,3.781-3.349,4.777-12.81,6.283-26.546,7.65-40.558,8.168-11.69.432-23.355,1.56-35.024,2.475a65.343,65.343,0,0,0-7.057,1.435Zm9.462-14.379a54.509,54.509,0,0,0,22.478-.022c10.673-2.071,21.278-5.157,32.323-3.8,3.5.431,5.035-.934,5.754-4.038q2.9-12.533,5.873-25.049c.642-2.69-1.333-2.913-3.019-3.3-11.265-2.579-22.475-3.94-33.864-.211-8.219,2.691-16.813,4.079-25.4,2.331-4.2-.856-5.525.69-5.886,4.2a17.777,17.777,0,0,0,.149,5.26c1.632,8.1,4.551,16.06,1.588,24.63Z" transform="translate(-258.335 -93.976)" fill="#05004e"/>
      <path id="Path_475" data-name="Path 475" d="M373.524,137.651c2.583-3.788,4.254-6.889,6.532-9.451a47.6,47.6,0,0,0,11.3-22.8c.712-3.608,2.528-4.2,5.435-3.015,4.137,1.687,8.614,2.985,12.153,5.545,2.629,1.9,4.259,5.416,5.76,8.492.4.828-.93,3.277-2.074,3.958-5.932,3.527-11.977,6.889-18.147,9.98-5.305,2.658-10.809,4.928-16.283,7.233C377.3,137.976,376.1,137.651,373.524,137.651Z" transform="translate(-255.188 -101.836)" fill="#05004e"/>
      <path id="Path_476" data-name="Path 476" d="M342.928,133.566c-.706,8.132-2.042,10.943-11.049,7.353-8.567-3.414-13.88-10.672-16.744-19.416-.348-1.063.794-3.356,1.889-4.021,4.928-2.995,10.179-4.612,15.737-1.412A20.74,20.74,0,0,1,342.928,133.566Z" transform="translate(-257.937 -101.249)" fill="#05004e"/>
    </g>
    <g id="forlogo5" transform="translate(-23519.895 -20863.09)" opacity="0.08">
      <circle id="Ellipse_234" data-name="Ellipse 234" cx="107.085" cy="107.085" r="107.085" transform="translate(515.411 1034.138)" fill="#05004e"/>
      <circle id="Ellipse_235" data-name="Ellipse 235" cx="107.085" cy="107.085" r="107.085" transform="translate(282.511 556.529)" fill="#05004e"/>
      <path id="Path_482" data-name="Path 482" d="M858.246,223.466c1.629,22.8-1.629,47.231,5.7,67.59C895.3,376.561,894.891,470.21,861.911,554.9q-37.256-120.929-74.919-240.636c-11.808-36.238-30.13-66.368-52.525-93.242h0l-.407-.407c-2.036-2.443-3.664-4.886-6.108-7.329C650.183,121.267,543.913,21.917,510.932,15.4,491.388,7.259,442.12,14.181,365.98,35.354c18.323,6.108,33.8,16.287,46.824,28.5h0l.407.407.407.407c43.567,39.088,63.111,67.183,65.554,86.32.407,68-14.251,84.691-82.248,83.062-54.968-1.629-110.343-14.251-164.9-10.994-42.753,2.85-105.049-23.616-120.522,51.3a691.519,691.519,0,0,1,285.832,91.206C501.974,426.643,575.265,509.7,602.138,630.634c15.472,68.811,1.222,129.072-59.039,154.724-108.307,45.2-158.8,136.4-208.47,229.236-94.463,175.9-96.906,350.572,26.059,514.661,44.381,59.447,98.535,111.157,148.616,166.532,155.945-11.808,312.705-51.71,469.872-113.6-51.3-1.222-103.014-.814-153.91-4.886-19.951-1.629-39.088-16.287-71.254-30.538,230.457-104.235,370.93-312.705,309.448-449.107-45.6,103.828-107.492,189.333-199.512,251.63-92.427,62.7-208.47,46.824-308.633-21.987-71.254-48.86-114.414-186.483-90.391-272.4,30.13-107.085,105.049-167.346,206.027-203.991C816.308,797.98,937.237,721.432,976.732,554.9,1002.384,451.48,945.38,273.547,858.246,223.466Z" transform="translate(0 0)" fill="#05004e"/>
    </g>
    <circle id="Ellipse_246" data-name="Ellipse 246" cx="822.5" cy="822.5" r="822.5" transform="translate(-23729.467 -20831.652)" fill="none" stroke="#da1212" stroke-width="50"/>
    <g id="Group_211" data-name="Group 211" transform="translate(-24334.424 -12377.688)">
      <text id="K" transform="translate(735 -7484)" fill="#eee" font-size="590" font-family="ZenzaiItachi, Zenzai Itachi"><tspan x="0" y="0">K</tspan></text>
      <text id="D" transform="translate(1146 -7485)" fill="#eee" font-size="589" font-family="ZenzaiItachi, Zenzai Itachi"><tspan x="0" y="0">D</tspan></text>
      <path id="Z" d="M556.267,863.358c-8.84-.955-45.813-6.342-71.576-10.5a904.427,904.427,0,0,1-107.8-33.043A905.176,905.176,0,0,1,233.51,750.934q-9.363-5.444-18.347-10.635-13.713-7.913-27.731-16.456,97.506-49.368,189.24-106.048T557.38,498.339A138.427,138.427,0,0,0,584.5,497.12q11.271-1.827,13.1-8.532c-.819-.4-3.047-1.219-6.7-2.438s-8.533-2.838-14.627-4.876q-1.23-5.485-3.048-15.846a81.518,81.518,0,0,0-5.79-19.2q-3.972-8.828-10.361-12.8t-16.151,3.352q-7.927,6.713-15.846,13.1t-16.456,13.1a32.8,32.8,0,0,0-6.7-1.828,31.5,31.5,0,0,1-6.7-1.829q-57.909-15.841-114.276-30.169A828.478,828.478,0,0,1,270.929,392.9q-26.212-11.571-52.11-23.769t-51.5-26.207l-56.68-29.254-103.61-57.9,11.58,65.213q1.214,7.313,3.048,16.151t4.266,17.979q1.829,7.313,3.352,16.76T30.8,382.541q4.256,1.828,9.751,4.266a170.028,170.028,0,0,0,20.722,7.923,52.779,52.779,0,0,0,10.97,2.438,19.045,19.045,0,0,0,9.752-1.219,12.258,12.258,0,0,0,6.4-6.7q2.129-4.871,1.524-14.018-.614-3.657-1.219-6.095c-.409.409-.609.409-.609,0-.409,0-.61-.1-.61-.3s-.21-.305-.61-.305a45.638,45.638,0,0,1-2.438-6.094q1.214-1.215,7.923.609l51.805,24.379q27.426,12.2,55.157,23.465,27.726,11.285,56.986,21.636A839.193,839.193,0,0,0,366.921,463.3q55.152,11.285,111.228,22.855-76.793,59.738-156.938,114.276T156.349,704.341q-15.856-9.742-31.693-20.112Q108.8,673.871,92.964,663.506q-21.341,6.1-32.911,14.018-10.37,6.713-13.408,16.151-3.057,9.456,14.018,19.808,10.356,6.1,19.807,12.19t19.808,12.189a31.725,31.725,0,0,1-4.266,1.828,7.7,7.7,0,0,0-3.048,1.828,295.326,295.326,0,0,0-26.512,21.027q-11.885,10.656-8.227,19.2,2.428,0,21.331-7.314Q98.44,767.117,127.7,753.1q22.541,13.4,45.405,25.6t46.015,24.378q5.85,2.924,11.721,5.757a859.3,859.3,0,0,0,150.914,54.822q16.566,4.315,32.475,7.776l0-.186c15.56,3.271,32.264,6.251,50.028,8.708l.22.029q8.4,1.324,17.732,2.546,9.426.821,21.35,1.91a206.207,206.207,0,0,0,25.047.657q12.911.14,25.28-.879a215.2,215.2,0,0,0,21.762-2.8,53.29,53.29,0,0,0,15.461-5.09q6.065-3.315,6.372-7.737-1.718-.623-12.577-1.969T556.267,863.358Z" transform="translate(1522.307 -8221.771)" fill="#eee"/>
    </g>
  </g>
</svg>
