<svg xmlns="http://www.w3.org/2000/svg" width="23.689" height="23.688" viewBox="0 0 23.689 23.688">
  <path id="Icon_metro-target" data-name="Icon metro-target" d="M26.259,12.292H23.925A9.647,9.647,0,0,0,15.9,4.263V1.928H12.935V4.263a9.647,9.647,0,0,0-8.029,8.029H2.571v2.961H4.905a9.647,9.647,0,0,0,8.029,8.029v2.335H15.9V23.282a9.647,9.647,0,0,0,8.029-8.029h2.335V12.292Zm-5.348,0H18.6A4.454,4.454,0,0,0,15.9,9.584V7.276A6.684,6.684,0,0,1,20.911,12.292Zm-6.5,2.961A1.481,1.481,0,1,1,15.9,13.772,1.481,1.481,0,0,1,14.415,15.253ZM12.935,7.276V9.584a4.453,4.453,0,0,0-2.708,2.708H7.919A6.684,6.684,0,0,1,12.935,7.276ZM7.919,15.253h2.308a4.453,4.453,0,0,0,2.708,2.708v2.308A6.684,6.684,0,0,1,7.919,15.253ZM15.9,20.269V17.961A4.454,4.454,0,0,0,18.6,15.253h2.308A6.684,6.684,0,0,1,15.9,20.269Z" transform="translate(-2.57 -1.928)" fill="#05004e"/>
</svg>
