<svg xmlns="http://www.w3.org/2000/svg" width="23.918" height="23.921" viewBox="0 0 23.918 23.921">
  <path id="Icon_awesome-check-double" data-name="Icon awesome-check-double" d="M23.59,8.165l-1.85-1.85a1.117,1.117,0,0,0-1.584,0L8.968,17.5l-5.2-5.209a1.117,1.117,0,0,0-1.584,0L.326,14.149a1.122,1.122,0,0,0,0,1.588L8.174,23.59a1.117,1.117,0,0,0,1.584,0L23.585,9.753A1.126,1.126,0,0,0,23.59,8.165ZM8.44,13.117a.742.742,0,0,0,1.056,0l9.717-9.726a.75.75,0,0,0,0-1.056L17.1.219a.742.742,0,0,0-1.056,0L8.968,7.3,6.38,4.7a.742.742,0,0,0-1.056,0L3.208,6.82a.75.75,0,0,0,0,1.056Z" transform="translate(0.004 0.002)" fill="#05004e"/>
</svg>
