<svg xmlns="http://www.w3.org/2000/svg" width="23.17" height="23.17" viewBox="0 0 23.17 23.17">
  <path id="Icon_awesome-sync-alt" data-name="Icon awesome-sync-alt" d="M17.507,6.415a7.85,7.85,0,0,0-12.971,3.81.562.562,0,0,1-.544.427H1.315a.56.56,0,0,1-.552-.662A11.587,11.587,0,0,1,20.151,3.771L21.819,2.1a1.121,1.121,0,0,1,1.914.793V9.158a1.121,1.121,0,0,1-1.121,1.121H16.349a1.121,1.121,0,0,1-.793-1.914Zm-15.823,7.6H7.946a1.121,1.121,0,0,1,.793,1.914l-1.95,1.95A7.85,7.85,0,0,0,19.76,14.07a.562.562,0,0,1,.544-.427h2.677a.56.56,0,0,1,.552.662A11.587,11.587,0,0,1,4.145,20.524L2.476,22.192A1.121,1.121,0,0,1,.563,21.4V15.137A1.121,1.121,0,0,1,1.684,14.016Z" transform="translate(-0.563 -0.563)" fill="#05004e"/>
</svg>
