<svg xmlns="http://www.w3.org/2000/svg" width="23.918" height="20.928" viewBox="0 0 23.918 20.928">
  <path id="Icon_awesome-random" data-name="Icon awesome-random" d="M23.59,17.527a1.121,1.121,0,0,1,0,1.586l-3.737,3.736a1.122,1.122,0,0,1-1.914-.793V20.188H15.192a.561.561,0,0,1-.41-.178l-3.3-3.531,2.491-2.669,2.466,2.642h1.495V14.583a1.122,1.122,0,0,1,1.914-.793l3.737,3.736ZM.561,8.977H4.485L6.95,11.619,9.442,8.949l-3.3-3.531a.561.561,0,0,0-.41-.178H.561A.561.561,0,0,0,0,5.8V8.416A.561.561,0,0,0,.561,8.977Zm17.378,0v1.868a1.122,1.122,0,0,0,1.914.793L23.59,7.9a1.121,1.121,0,0,0,0-1.586L19.852,2.579a1.122,1.122,0,0,0-1.914.793V5.24H15.192a.561.561,0,0,0-.41.178L4.485,16.451H.561A.561.561,0,0,0,0,17.012v2.616a.561.561,0,0,0,.561.561H5.736a.561.561,0,0,0,.41-.178l10.3-11.033Z" transform="translate(0 -2.25)" fill="#05004e"/>
</svg>
