<svg xmlns="http://www.w3.org/2000/svg" width="17.412" height="17.408" viewBox="0 0 17.412 17.408">
  <path id="Icon_awesome-instagram" data-name="Icon awesome-instagram" d="M8.7,6.478a4.463,4.463,0,1,0,4.463,4.463A4.456,4.456,0,0,0,8.7,6.478Zm0,7.365a2.9,2.9,0,1,1,2.9-2.9,2.907,2.907,0,0,1-2.9,2.9ZM14.389,6.3a1.041,1.041,0,1,1-1.041-1.041A1.039,1.039,0,0,1,14.389,6.3Zm2.956,1.057a5.152,5.152,0,0,0-1.406-3.647A5.186,5.186,0,0,0,12.292,2.3c-1.437-.082-5.745-.082-7.182,0A5.178,5.178,0,0,0,1.462,3.7,5.169,5.169,0,0,0,.056,7.349c-.082,1.437-.082,5.745,0,7.182a5.152,5.152,0,0,0,1.406,3.647A5.192,5.192,0,0,0,5.11,19.584c1.437.082,5.745.082,7.182,0a5.152,5.152,0,0,0,3.647-1.406,5.186,5.186,0,0,0,1.406-3.647c.082-1.437.082-5.741,0-7.178Zm-1.857,8.72a2.938,2.938,0,0,1-1.655,1.655c-1.146.454-3.865.35-5.131.35s-3.989.1-5.131-.35a2.938,2.938,0,0,1-1.655-1.655c-.454-1.146-.35-3.865-.35-5.131s-.1-3.989.35-5.131A2.938,2.938,0,0,1,3.571,4.156c1.146-.454,3.865-.35,5.131-.35s3.989-.1,5.131.35A2.938,2.938,0,0,1,15.489,5.81c.454,1.146.35,3.865.35,5.131S15.943,14.931,15.489,16.073Z" transform="translate(0.005 -2.237)" fill="#fff"/>
</svg>
