<svg xmlns="http://www.w3.org/2000/svg" width="17.279" height="19.888" viewBox="0 0 17.279 19.888">
  <path id="Icon_simple-tiktok" data-name="Icon simple-tiktok" d="M11.443.017C12.529,0,13.606.008,14.683,0a5.161,5.161,0,0,0,1.45,3.456,5.844,5.844,0,0,0,3.514,1.483v3.34a8.87,8.87,0,0,1-3.48-.8A10.238,10.238,0,0,1,14.824,6.7c-.008,2.42.008,4.839-.017,7.251a6.329,6.329,0,0,1-1.119,3.265,6.174,6.174,0,0,1-4.9,2.66,6.042,6.042,0,0,1-3.381-.854,6.249,6.249,0,0,1-3.025-4.732c-.017-.414-.025-.829-.008-1.235A6.238,6.238,0,0,1,9.612,7.524c.017,1.226-.033,2.453-.033,3.679a2.843,2.843,0,0,0-3.63,1.757,3.287,3.287,0,0,0-.116,1.334,2.82,2.82,0,0,0,2.9,2.378,2.784,2.784,0,0,0,2.3-1.334,1.912,1.912,0,0,0,.34-.878c.083-1.483.05-2.958.058-4.442.008-3.34-.008-6.671.017-10Z" transform="translate(-2.369)" fill="#fff"/>
</svg>
