<svg xmlns="http://www.w3.org/2000/svg" width="19.888" height="16.152" viewBox="0 0 19.888 16.152">
  <path id="Icon_awesome-twitter" data-name="Icon awesome-twitter" d="M17.844,7.406c.013.177.013.353.013.53a11.518,11.518,0,0,1-11.6,11.6A11.519,11.519,0,0,1,0,17.7a8.432,8.432,0,0,0,.984.05,8.163,8.163,0,0,0,5.06-1.741,4.083,4.083,0,0,1-3.811-2.827,5.14,5.14,0,0,0,.77.063,4.311,4.311,0,0,0,1.073-.139,4.077,4.077,0,0,1-3.268-4v-.05a4.105,4.105,0,0,0,1.842.517A4.082,4.082,0,0,1,1.388,4.125a11.586,11.586,0,0,0,8.4,4.265,4.6,4.6,0,0,1-.1-.934,4.08,4.08,0,0,1,7.054-2.789,8.025,8.025,0,0,0,2.587-.984A4.065,4.065,0,0,1,17.541,5.93,8.171,8.171,0,0,0,19.888,5.3a8.762,8.762,0,0,1-2.044,2.107Z" transform="translate(0 -3.381)" fill="#fff"/>
</svg>
