<svg xmlns="http://www.w3.org/2000/svg" width="21.214" height="14.916" viewBox="0 0 21.214 14.916">
  <path id="Icon_awesome-youtube" data-name="Icon awesome-youtube" d="M21.821,6.834a2.666,2.666,0,0,0-1.876-1.888C18.291,4.5,11.657,4.5,11.657,4.5s-6.634,0-8.288.446A2.666,2.666,0,0,0,1.493,6.834a27.962,27.962,0,0,0-.443,5.139,27.962,27.962,0,0,0,.443,5.139A2.626,2.626,0,0,0,3.369,18.97c1.654.446,8.288.446,8.288.446s6.634,0,8.288-.446a2.626,2.626,0,0,0,1.876-1.858,27.962,27.962,0,0,0,.443-5.139,27.962,27.962,0,0,0-.443-5.139ZM9.487,15.127V8.819l5.545,3.154L9.487,15.127Z" transform="translate(-1.05 -4.5)" fill="#fff"/>
</svg>
