<svg xmlns="http://www.w3.org/2000/svg" width="36.686" height="36.687" viewBox="0 0 36.686 36.687">
  <path id="Icon_material-center-focus-strong" data-name="Icon material-center-focus-strong" d="M28.968,20.816a8.152,8.152,0,1,0,8.152,8.152A8.15,8.15,0,0,0,28.968,20.816ZM14.7,35.082H10.625v8.152A4.088,4.088,0,0,0,14.7,47.311h8.152V43.235H14.7Zm0-20.381h8.152V10.625H14.7A4.088,4.088,0,0,0,10.625,14.7v8.152H14.7Zm28.534-4.076H35.082V14.7h8.152v8.152h4.076V14.7A4.088,4.088,0,0,0,43.235,10.625Zm0,32.61H35.082v4.076h8.152a4.088,4.088,0,0,0,4.076-4.076V35.082H43.235Z" transform="translate(-10.625 -10.625)" fill="#ffbd69"/>
</svg>
