<svg xmlns="http://www.w3.org/2000/svg" width="37.085" height="37.085" viewBox="0 0 37.085 37.085">
  <path id="Icon_awesome-caret-square-up" data-name="Icon awesome-caret-square-up" d="M0,37.862V8.723A3.973,3.973,0,0,1,3.973,4.75H33.112a3.973,3.973,0,0,1,3.973,3.973V37.862a3.973,3.973,0,0,1-3.973,3.973H3.973A3.973,3.973,0,0,1,0,37.862ZM29.429,26.233,19.245,16.048a.993.993,0,0,0-1.4,0L7.656,26.233a.993.993,0,0,0,.7,1.7H28.727A.993.993,0,0,0,29.429,26.233Z" transform="translate(0 -4.75)" fill="#ffbd69"/>
</svg>
