<svg xmlns="http://www.w3.org/2000/svg" width="37.083" height="37.083" viewBox="0 0 37.083 37.083">
  <path id="Icon_awesome-superpowers" data-name="Icon awesome-superpowers" d="M37.083,2.25c-6.9.911-13.807,1.821-20.694,2.732A16.062,16.062,0,0,0,2.4,19.881,15.811,15.811,0,0,0,7.185,32.148L0,39.333,20.677,36.6A16.036,16.036,0,0,0,34.641,21.719,15.775,15.775,0,0,0,29.865,9.451Zm-6.6,19.229A11.985,11.985,0,1,1,19.22,8.98a11.91,11.91,0,0,1,11.266,12.5Z" transform="translate(0 -2.25)" fill="#ffbd69"/>
</svg>
