<svg xmlns="http://www.w3.org/2000/svg" width="41.752" height="36.532" viewBox="0 0 41.752 36.532">
  <path id="Icon_awesome-object-group" data-name="Icon awesome-object-group" d="M39.142,13.141V10.531h1.631a.979.979,0,0,0,.979-.979V6.291a.979.979,0,0,0-.979-.979H37.511a.979.979,0,0,0-.979.979V7.922H5.219V6.291a.979.979,0,0,0-.979-.979H.979A.979.979,0,0,0,0,6.291V9.553a.979.979,0,0,0,.979.979H2.609V36.626H.979A.979.979,0,0,0,0,37.6v3.262a.979.979,0,0,0,.979.979H4.24a.979.979,0,0,0,.979-.979V39.236H36.533v1.631a.979.979,0,0,0,.979.979h3.262a.979.979,0,0,0,.979-.979V37.6a.979.979,0,0,0-.979-.979H39.142ZM7.828,25.21V14.119a.979.979,0,0,1,.979-.979h13.7a.979.979,0,0,1,.979.979V25.21a.979.979,0,0,1-.979.979H8.807A.979.979,0,0,1,7.828,25.21Zm26.095,7.828a.979.979,0,0,1-.979.979h-13.7a.979.979,0,0,1-.979-.979V28.8h5.871a1.957,1.957,0,0,0,1.957-1.957V20.969h6.85a.979.979,0,0,1,.979.979Z" transform="translate(0 -5.313)" fill="#ffbd69"/>
</svg>
